<?xml version="1.0" encoding="utf-8"?>
<!-- Generator: Adobe Illustrator 17.0.0, SVG Export Plug-In . SVG Version: 6.00 Build 0)  -->
<!DOCTYPE svg PUBLIC "-//W3C//DTD SVG 1.1//EN" "http://www.w3.org/Graphics/SVG/1.1/DTD/svg11.dtd">
<svg version="1.1" id="Layer_1" xmlns="http://www.w3.org/2000/svg" xmlns:xlink="http://www.w3.org/1999/xlink" x="0px" y="0px"
	 width="2324px" height="387px" viewBox="0 0 2324 387" enable-background="new 0 0 2324 387" xml:space="preserve">
<path d="M0,204.556c133,13.333,251.167,26.667,326.722,28.889c75.556,2.222,311.083-60,382.194-46.667
	C780.028,200.111,1028.903,209,1148.903,249s228.882,51.111,313.326,53.333c84.444,2.222,93.33-17.778,124.441-17.778
	s79.998,13.333,117.776,0c37.778-13.333,91.11-43.925,164.444-40.851c73.333,3.074,334.666,6.667,454.666-28.037L2324,0.111L0,0
	V204.556z"/>
<path d="M0,153.444c73.333-37.778,242.222-22.194,362.222,2.25s273.333-23.609,422.222-23.609
	c302.222,0,366.667,56.922,524.444,56.922c61.557,0,68.889-28.468,117.778-28.468c48.889,0,80,15.129,100,15.129
	s82.222-33.668,137.778-33.668s255.333,73.666,448.667,73.666S2307,173.869,2324,173.869V0H0V153.444z"/>
<path d="M0,266.778c0,0,171.111-37.778,324.444-22.222s173.333,46.667,282.222,48.889c108.889,2.222,188.889-42.222,224.444-42.222
	c35.556,0,80,25.212,166.667,15.94s177.778-55.94,255.556-38.162c77.778,17.778,126.667,5.329,144.444-4.002
	c17.778-9.331,91.111-29.331,162.222-22.665c71.111,6.667,211.294,69.227,311.111,60c99.818-9.227,171.111,31.456,202.222,40.172
	c31.111,8.717,212.445,48.717,250.667,22.05V0H0V266.778z"/>
</svg>
