<?xml version="1.0" encoding="utf-8"?>
<!-- Generator: Adobe Illustrator 17.0.0, SVG Export Plug-In . SVG Version: 6.00 Build 0)  -->
<!DOCTYPE svg PUBLIC "-//W3C//DTD SVG 1.1//EN" "http://www.w3.org/Graphics/SVG/1.1/DTD/svg11.dtd">
<svg version="1.1" id="Layer_1" xmlns="http://www.w3.org/2000/svg" xmlns:xlink="http://www.w3.org/1999/xlink" x="0px" y="0px"
	 width="90px" height="90px" viewBox="0 0 90 90" enable-background="new 0 0 90 90" xml:space="preserve">
<path d="M89.252,45.079c0-24.403-19.852-44.253-44.252-44.253c-24.401,0-44.253,19.853-44.253,44.254s19.853,44.253,44.254,44.253
	C69.402,89.333,89.252,69.48,89.252,45.079z M3.5,45.08c0-22.885,18.616-41.502,41.501-41.502c22.883,0,41.499,18.617,41.499,41.501
	S67.885,86.581,45.001,86.581C22.119,86.581,3.5,67.964,3.5,45.08z"/>
<polygon points="30.604,45.08 57.763,22.749 57.763,19.322 26.436,45.08 57.763,70.837 57.763,67.411 "/>
</svg>
