<?xml version="1.0" encoding="utf-8"?>
<!-- Generator: Adobe Illustrator 17.0.0, SVG Export Plug-In . SVG Version: 6.00 Build 0)  -->
<!DOCTYPE svg PUBLIC "-//W3C//DTD SVG 1.1//EN" "http://www.w3.org/Graphics/SVG/1.1/DTD/svg11.dtd">
<svg version="1.1" id="Layer_1" xmlns="http://www.w3.org/2000/svg" xmlns:xlink="http://www.w3.org/1999/xlink" x="0px" y="0px"
	 width="90px" height="90px" viewBox="0 0 90 90" enable-background="new 0 0 90 90" xml:space="preserve">
<path d="M0.748,45.08c0,24.403,19.852,44.253,44.252,44.253c24.401,0,44.253-19.853,44.253-44.254S69.399,0.826,44.998,0.826
	C20.598,0.826,0.748,20.679,0.748,45.08z M86.5,45.079c0,22.885-18.616,41.502-41.501,41.502C22.116,86.581,3.5,67.964,3.5,45.08
	S22.115,3.578,44.999,3.578C67.881,3.578,86.5,22.196,86.5,45.079z"/>
<polygon points="59.396,45.079 32.237,67.411 32.237,70.837 63.564,45.079 32.237,19.322 32.237,22.749 "/>
</svg>
