
<svg version="1.1" id="Layer_1" xmlns="http://www.w3.org/2000/svg" xmlns:xlink="http://www.w3.org/1999/xlink" x="0px" y="0px"
	 width="100px" height="100px" viewBox="0 0 100 100" enable-background="new 0 0 100 100" xml:space="preserve">
<path d="M69.117,42.318c-5.856-7.036-11.714-14.072-17.57-21.109c-0.431-0.517-0.937-0.705-1.426-0.671
	c-0.489-0.034-0.997,0.155-1.426,0.671c-5.856,7.035-11.714,14.072-17.57,21.109c-1.084,1.3-0.454,3.444,1.425,3.444
	c2.458,0,4.915,0,7.372,0c0,10.641,0,21.282,0,31.924c0,1.1,0.918,2.018,2.018,2.018c5.452,0,10.906,0,16.361,0
	c1.1,0,2.018-0.918,2.018-2.018c0-10.642,0-21.283,0-31.924c2.457,0,4.914,0,7.372,0C69.571,45.762,70.201,43.618,69.117,42.318z"/>
<path d="M50.12,0.833C22.9,0.833,0.833,22.9,0.833,50.12S22.9,99.407,50.12,99.407S99.407,77.341,99.407,50.12
	S77.341,0.833,50.12,0.833z M50.12,91.521c-22.865,0-41.401-18.537-41.401-41.401c0-22.865,18.536-41.401,41.401-41.401
	c22.864,0,41.401,18.536,41.401,41.401C91.521,72.985,72.985,91.521,50.12,91.521z"/>
</svg>
