
<svg version="1.1" class="padding-bottom-large" id="ben_2" xmlns="http://www.w3.org/2000/svg" xmlns:xlink="http://www.w3.org/1999/xlink" x="0px" y="0px" viewBox="24.59 123.947 254.91 46.957" enable-background="new 24.59 123.947 254.91 46.957" xml:space="preserve">
<g>
	<g>
				<path d="M56.625,150.659H25.247c-0.362,0-0.657-0.293-0.657-0.657c0-0.363,0.294-0.658,0.657-0.658h31.378
					c0.362,0,0.657,0.294,0.657,0.658C57.282,150.366,56.989,150.659,56.625,150.659z"/>
	</g>
	<g>
				<path fill="none" stroke="#000000" stroke-width="2" stroke-linecap="round" stroke-miterlimit="10" d="M32.349,153.81"/>
	</g>
	<g>
				<path d="M42.402,165.308c-2.636,0-4.78-2.144-4.78-4.78c0-2.636,2.144-4.78,4.78-4.78c1.095,0,2.166,0.38,3.013,1.069
					c0.281,0.228,0.324,0.643,0.095,0.924c-0.228,0.282-0.642,0.325-0.924,0.095c-0.623-0.507-1.379-0.775-2.185-0.775
					c-1.912,0-3.466,1.555-3.466,3.466c0,1.911,1.554,3.466,3.466,3.466c0.528,0,1.035-0.116,1.506-0.343
					c0.326-0.157,0.719-0.021,0.877,0.306c0.157,0.326,0.021,0.72-0.306,0.877C43.829,165.15,43.129,165.308,42.402,165.308z"/>
	</g>
	<g>
				<path d="M45.403,161.958c-1.095,0-2.166-0.38-3.014-1.069c-0.281-0.228-0.324-0.643-0.095-0.924
					c0.229-0.281,0.643-0.323,0.925-0.095c0.623,0.507,1.379,0.774,2.185,0.774c1.911,0,3.466-1.554,3.466-3.466
					c0-1.911-1.555-3.466-3.466-3.466H31.246c-0.362,0-0.657-0.293-0.657-0.657c0-0.363,0.294-0.657,0.657-0.657h14.157
					c2.636,0,4.78,2.144,4.78,4.78S48.039,161.958,45.403,161.958z"/>
	</g>
	<g>
				<path d="M62.674,152.98c-0.186,0-0.37-0.078-0.5-0.23c-0.236-0.276-0.203-0.69,0.073-0.927c1.818-1.553,2.861-3.815,2.861-6.204
					c0-4.498-3.659-8.158-8.158-8.158s-8.158,3.659-8.158,8.158c0,0.362-0.294,0.657-0.657,0.657c-0.362,0-0.657-0.294-0.657-0.657
					c0-5.223,4.249-9.472,9.472-9.472s9.472,4.249,9.472,9.472c0,2.775-1.211,5.4-3.322,7.204
					C62.978,152.929,62.826,152.98,62.674,152.98z"/>
	</g>
	<g>
				<path d="M45.001,146.365h-4.267c-0.182,0-0.329-0.147-0.329-0.328c0-0.183,0.147-0.329,0.329-0.329h4.267
					c0.182,0,0.329,0.146,0.329,0.329C45.33,146.219,45.183,146.365,45.001,146.365z"/>
	</g>
	<g>
				<path d="M73.05,146.365h-4.267c-0.182,0-0.329-0.147-0.329-0.328c0-0.183,0.147-0.329,0.329-0.329h4.267
					c0.182,0,0.329,0.146,0.329,0.329C73.378,146.219,73.231,146.365,73.05,146.365z"/>
	</g>
	<g>
				<path d="M48.019,137.133c-0.084,0-0.169-0.033-0.232-0.096l-3.017-3.017c-0.128-0.128-0.128-0.336,0-0.464s0.337-0.128,0.465,0
					l3.016,3.017c0.128,0.128,0.128,0.336,0,0.465C48.186,137.1,48.102,137.133,48.019,137.133z"/>
	</g>
	<g>
				<path d="M68.955,158.07c-0.083,0-0.168-0.033-0.231-0.096l-3.017-3.017c-0.128-0.128-0.128-0.336,0-0.465
					c0.129-0.128,0.336-0.128,0.465,0l3.017,3.017c0.129,0.128,0.129,0.336,0,0.465C69.123,158.037,69.039,158.07,68.955,158.07z"/>
	</g>
	<g>
				<path d="M65.766,137.134c-0.083,0-0.168-0.032-0.232-0.096c-0.128-0.128-0.128-0.337,0-0.465l3.017-3.017
					c0.128-0.128,0.336-0.128,0.465,0c0.128,0.129,0.128,0.336,0,0.465l-3.017,3.017C65.934,137.101,65.85,137.134,65.766,137.134z"
					/>
	</g>
	<g>
				<path d="M56.951,133.491c-0.182,0-0.329-0.147-0.329-0.329v-4.266c0-0.182,0.147-0.329,0.329-0.329s0.328,0.147,0.328,0.329
					v4.266C57.279,133.344,57.133,133.491,56.951,133.491z"/>
	</g>
</g>
<g>
	<g>
		<path d="M127.575,139.491c-0.362,0-0.657-0.294-0.657-0.657v-6.868c0-0.362,0.294-0.657,0.657-0.657s0.657,0.293,0.657,0.657
			v6.868C128.232,139.197,127.938,139.491,127.575,139.491z"/>
	</g>
	<g>
		<path d="M137.645,147.553c-0.084,0-0.171-0.017-0.254-0.052l-6.333-2.657c-0.335-0.14-0.492-0.526-0.352-0.86
			c0.14-0.335,0.525-0.491,0.86-0.352l6.333,2.657c0.335,0.141,0.492,0.526,0.352,0.86
			C138.145,147.401,137.901,147.553,137.645,147.553z"/>
	</g>
	<g>
		<path d="M117.653,147.553c-0.257,0-0.501-0.152-0.606-0.404c-0.14-0.334,0.017-0.719,0.352-0.86l6.333-2.657
			c0.335-0.138,0.72,0.017,0.86,0.352c0.14,0.335-0.017,0.72-0.352,0.86l-6.333,2.657
			C117.824,147.536,117.738,147.553,117.653,147.553z"/>
	</g>
	<g>
		<path d="M127.575,145.121c-1.252,0-2.269-1.018-2.269-2.27s1.018-2.269,2.269-2.269c1.252,0,2.269,1.018,2.269,2.269
			C129.845,144.104,128.827,145.121,127.575,145.121z M127.575,141.897c-0.527,0-0.955,0.428-0.955,0.955s0.428,0.956,0.955,0.956
			c0.527,0,0.955-0.429,0.955-0.956S128.102,141.897,127.575,141.897z"/>
	</g>
	<g>
		<path d="M126.261,164.922l0.657-17.37c0-0.362,0.294-0.657,0.657-0.657s0.657,0.294,0.657,0.657l0.657,17.37
			C128.89,165.286,126.261,165.286,126.261,164.922z"/>
	</g>
</g>
<g>
	<g>
		<path d="M190.243,148.722h-6.611c-1.176,0-2.132-0.956-2.132-2.132v-3.366c0-1.176,0.956-2.132,2.132-2.132h6.611
			c1.176,0,2.132,0.956,2.132,2.132v3.366C192.375,147.765,191.419,148.722,190.243,148.722z M183.634,142.406
			c-0.451,0-0.817,0.367-0.817,0.818v3.366c0,0.451,0.367,0.817,0.817,0.817h6.611c0.451,0,0.817-0.367,0.817-0.817v-3.366
			c0-0.451-0.367-0.818-0.817-0.818H183.634z"/>
	</g>
	<g>
		<path d="M202.353,148.722h-6.609c-1.176,0-2.132-0.956-2.132-2.132v-3.366c0-1.176,0.956-2.132,2.132-2.132h6.609
			c1.176,0,2.132,0.956,2.132,2.132v3.366C204.487,147.765,203.53,148.722,202.353,148.722z M195.744,142.406
			c-0.451,0-0.818,0.367-0.818,0.818v3.366c0,0.451,0.368,0.817,0.818,0.817h6.609c0.451,0,0.818-0.367,0.818-0.817v-3.366
			c0-0.451-0.368-0.818-0.818-0.818H195.744z"/>
	</g>
	<g>
		<path d="M190.243,157.599h-6.611c-1.176,0-2.132-0.956-2.132-2.132v-3.366c0-1.177,0.956-2.132,2.132-2.132h6.611
			c1.176,0,2.132,0.955,2.132,2.132v3.366C192.375,156.643,191.419,157.599,190.243,157.599z M183.634,151.283
			c-0.451,0-0.817,0.368-0.817,0.818v3.366c0,0.451,0.367,0.818,0.817,0.818h6.611c0.451,0,0.817-0.367,0.817-0.818v-3.366
			c0-0.451-0.367-0.818-0.817-0.818H183.634z"/>
	</g>
	<g>
		<path d="M202.353,157.599h-6.609c-1.176,0-2.132-0.956-2.132-2.132v-3.366c0-1.177,0.956-2.132,2.132-2.132h6.609
			c1.176,0,2.132,0.955,2.132,2.132v3.366C204.487,156.643,203.53,157.599,202.353,157.599z M195.744,151.283
			c-0.451,0-0.818,0.368-0.818,0.818v3.366c0,0.451,0.368,0.818,0.818,0.818h6.609c0.451,0,0.818-0.367,0.818-0.818v-3.366
			c0-0.451-0.368-0.818-0.818-0.818H195.744z"/>
	</g>
</g>
<g>
	<g>
		<path d="M257.98,166.096c-0.362,0-0.657-0.294-0.657-0.657v-21.017c0-0.362,0.294-0.657,0.657-0.657
			c0.362,0,0.658,0.294,0.658,0.657v21.017C258.638,165.801,258.342,166.096,257.98,166.096z"/>
	</g>
	<g>
		<path d="M257.98,162.704c-0.362,0-0.657-0.293-0.657-0.657c0-1.515,0.632-5.189,6.474-6.612c0.349-0.085,0.708,0.13,0.794,0.483
			c0.086,0.352-0.13,0.708-0.483,0.794c-4.76,1.158-5.471,3.84-5.471,5.334C258.638,162.409,258.342,162.704,257.98,162.704z"/>
	</g>
	<g>
		<path d="M257.98,154.785c-0.362,0-0.657-0.294-0.657-0.657c0-1.515,0.632-5.189,6.474-6.611c0.349-0.084,0.708,0.131,0.794,0.483
			c0.086,0.352-0.13,0.708-0.483,0.794c-4.76,1.158-5.471,3.84-5.471,5.334C258.638,154.49,258.342,154.785,257.98,154.785z"/>
	</g>
	<g>
		<path d="M257.98,162.704c-0.362,0-0.657-0.293-0.657-0.657c0-1.496-0.711-4.176-5.471-5.334c-0.352-0.086-0.569-0.442-0.483-0.794
			c0.085-0.353,0.445-0.57,0.794-0.483c5.844,1.422,6.475,5.098,6.475,6.611C258.638,162.409,258.342,162.704,257.98,162.704z"/>
	</g>
	<g>
		<path d="M257.98,154.785c-0.362,0-0.657-0.294-0.657-0.657c0-1.495-0.711-4.176-5.471-5.334c-0.352-0.086-0.569-0.442-0.483-0.794
			c0.085-0.353,0.445-0.569,0.794-0.483c5.844,1.422,6.475,5.098,6.475,6.612C258.638,154.49,258.342,154.785,257.98,154.785z"/>
	</g>
	<g>
		<path d="M257.98,145.078c-0.081,0-0.161-0.015-0.238-0.045c-0.206-0.08-5.048-2.008-5.048-6.04c0-3.8,3.247-8.371,5.286-8.371
			c2.433,0,5.287,5.533,5.287,8.371c0,4.032-4.843,5.96-5.049,6.04C258.141,145.064,258.061,145.078,257.98,145.078z
			 M257.98,131.938c-0.994,0-3.972,3.668-3.972,7.057c0,2.702,3.079,4.304,3.972,4.712c0.89-0.409,3.973-2.019,3.973-4.712
			C261.952,135.555,258.819,131.951,257.98,131.938z"/>
	</g>
	<g>
		<path d="M266.204,148.819c-1.073,0.504-2.246-0.615-2.246-0.615s-0.111-1.617,0.961-2.12c1.073-0.504,2.717-0.14,2.922,0.297
			C268.025,146.772,267.277,148.316,266.204,148.819z"/>
	</g>
	<g>
		<path d="M266.204,156.633c-1.073,0.504-2.246-0.615-2.246-0.615s-0.111-1.617,0.961-2.121c1.073-0.503,2.717-0.139,2.922,0.299
			C268.025,154.586,267.277,156.13,266.204,156.633z"/>
	</g>
	<g>
		<path d="M249.758,148.819c1.073,0.504,2.245-0.615,2.245-0.615s0.111-1.617-0.961-2.12c-1.073-0.504-2.717-0.14-2.922,0.297
			C247.936,146.772,248.685,148.316,249.758,148.819z"/>
	</g>
	<g>
		<path d="M249.758,156.633c1.073,0.504,2.245-0.615,2.245-0.615s0.111-1.617-0.961-2.121c-1.073-0.503-2.717-0.139-2.922,0.299
			C247.936,154.586,248.685,156.13,249.758,156.633z"/>
	</g>
</g>
<g>
	<g>
		<path d="M95.987,125.47c-0.14,0-0.254-0.114-0.254-0.254v-1.015c0-0.14,0.114-0.254,0.254-0.254c0.14,0,0.254,0.114,0.254,0.254
			v1.015C96.24,125.358,96.127,125.47,95.987,125.47z"/>
	</g>
	<g>
		<path d="M95.987,168.2c-0.14,0-0.254-0.114-0.254-0.254v-1.942c0-0.14,0.114-0.254,0.254-0.254c0.14,0,0.254,0.114,0.254,0.254
			v1.942C96.24,168.087,96.127,168.2,95.987,168.2z M95.987,164.316c-0.14,0-0.254-0.114-0.254-0.254v-1.942
			c0-0.14,0.114-0.254,0.254-0.254c0.14,0,0.254,0.114,0.254,0.254v1.942C96.24,164.202,96.127,164.316,95.987,164.316z
			 M95.987,160.432c-0.14,0-0.254-0.114-0.254-0.254v-1.942c0-0.14,0.114-0.254,0.254-0.254c0.14,0,0.254,0.114,0.254,0.254v1.942
			C96.24,160.318,96.127,160.432,95.987,160.432z M95.987,156.547c-0.14,0-0.254-0.114-0.254-0.254v-1.942
			c0-0.14,0.114-0.254,0.254-0.254c0.14,0,0.254,0.114,0.254,0.254v1.942C96.24,156.432,96.127,156.547,95.987,156.547z
			 M95.987,152.663c-0.14,0-0.254-0.114-0.254-0.254v-1.942c0-0.14,0.114-0.254,0.254-0.254c0.14,0,0.254,0.114,0.254,0.254v1.942
			C96.24,152.548,96.127,152.663,95.987,152.663z M95.987,148.779c-0.14,0-0.254-0.114-0.254-0.254v-1.942
			c0-0.14,0.114-0.254,0.254-0.254c0.14,0,0.254,0.114,0.254,0.254v1.942C96.24,148.664,96.127,148.779,95.987,148.779z
			 M95.987,144.894c-0.14,0-0.254-0.114-0.254-0.254v-1.942c0-0.14,0.114-0.254,0.254-0.254c0.14,0,0.254,0.114,0.254,0.254v1.942
			C96.24,144.78,96.127,144.894,95.987,144.894z M95.987,141.009c-0.14,0-0.254-0.114-0.254-0.254v-1.942
			c0-0.14,0.114-0.254,0.254-0.254c0.14,0,0.254,0.114,0.254,0.254v1.942C96.24,140.895,96.127,141.009,95.987,141.009z
			 M95.987,137.125c-0.14,0-0.254-0.114-0.254-0.254v-1.942c0-0.14,0.114-0.254,0.254-0.254c0.14,0,0.254,0.114,0.254,0.254v1.942
			C96.24,137.011,96.127,137.125,95.987,137.125z M95.987,133.24c-0.14,0-0.254-0.114-0.254-0.254v-1.942
			c0-0.14,0.114-0.254,0.254-0.254c0.14,0,0.254,0.114,0.254,0.254v1.942C96.24,133.127,96.127,133.24,95.987,133.24z
			 M95.987,129.356c-0.14,0-0.254-0.114-0.254-0.254v-1.943c0-0.14,0.114-0.254,0.254-0.254c0.14,0,0.254,0.114,0.254,0.254v1.942
			C96.24,129.242,96.127,129.356,95.987,129.356z"/>
	</g>
	<g>
		<path d="M95.987,171.158c-0.14,0-0.254-0.114-0.254-0.254v-1.015c0-0.14,0.114-0.254,0.254-0.254c0.14,0,0.254,0.114,0.254,0.254
			v1.015C96.24,171.044,96.127,171.158,95.987,171.158z"/>
	</g>
</g>
<g>
	<g>
		<path d="M160.465,125.47c-0.14,0-0.254-0.114-0.254-0.254v-1.015c0-0.14,0.114-0.254,0.254-0.254s0.254,0.114,0.254,0.254v1.015
			C160.719,125.358,160.605,125.47,160.465,125.47z"/>
	</g>
	<g>
		<path d="M160.465,168.2c-0.14,0-0.254-0.114-0.254-0.254v-1.942c0-0.14,0.114-0.254,0.254-0.254s0.254,0.114,0.254,0.254v1.942
			C160.719,168.087,160.605,168.2,160.465,168.2z M160.465,164.316c-0.14,0-0.254-0.114-0.254-0.254v-1.942
			c0-0.14,0.114-0.254,0.254-0.254s0.254,0.114,0.254,0.254v1.942C160.719,164.202,160.605,164.316,160.465,164.316z
			 M160.465,160.432c-0.14,0-0.254-0.114-0.254-0.254v-1.942c0-0.14,0.114-0.254,0.254-0.254s0.254,0.114,0.254,0.254v1.942
			C160.719,160.318,160.605,160.432,160.465,160.432z M160.465,156.547c-0.14,0-0.254-0.114-0.254-0.254v-1.942
			c0-0.14,0.114-0.254,0.254-0.254s0.254,0.114,0.254,0.254v1.942C160.719,156.432,160.605,156.547,160.465,156.547z
			 M160.465,152.663c-0.14,0-0.254-0.114-0.254-0.254v-1.942c0-0.14,0.114-0.254,0.254-0.254s0.254,0.114,0.254,0.254v1.942
			C160.719,152.548,160.605,152.663,160.465,152.663z M160.465,148.779c-0.14,0-0.254-0.114-0.254-0.254v-1.942
			c0-0.14,0.114-0.254,0.254-0.254s0.254,0.114,0.254,0.254v1.942C160.719,148.664,160.605,148.779,160.465,148.779z
			 M160.465,144.894c-0.14,0-0.254-0.114-0.254-0.254v-1.942c0-0.14,0.114-0.254,0.254-0.254s0.254,0.114,0.254,0.254v1.942
			C160.719,144.78,160.605,144.894,160.465,144.894z M160.465,141.009c-0.14,0-0.254-0.114-0.254-0.254v-1.942
			c0-0.14,0.114-0.254,0.254-0.254s0.254,0.114,0.254,0.254v1.942C160.719,140.895,160.605,141.009,160.465,141.009z
			 M160.465,137.125c-0.14,0-0.254-0.114-0.254-0.254v-1.942c0-0.14,0.114-0.254,0.254-0.254s0.254,0.114,0.254,0.254v1.942
			C160.719,137.011,160.605,137.125,160.465,137.125z M160.465,133.24c-0.14,0-0.254-0.114-0.254-0.254v-1.942
			c0-0.14,0.114-0.254,0.254-0.254s0.254,0.114,0.254,0.254v1.942C160.719,133.127,160.605,133.24,160.465,133.24z M160.465,129.356
			c-0.14,0-0.254-0.114-0.254-0.254v-1.943c0-0.14,0.114-0.254,0.254-0.254s0.254,0.114,0.254,0.254v1.942
			C160.719,129.242,160.605,129.356,160.465,129.356z"/>
	</g>
	<g>
		<path d="M160.465,171.158c-0.14,0-0.254-0.114-0.254-0.254v-1.015c0-0.14,0.114-0.254,0.254-0.254s0.254,0.114,0.254,0.254v1.015
			C160.719,171.044,160.605,171.158,160.465,171.158z"/>
	</g>
</g>
<g>
	<g>
		<path d="M224.943,125.47c-0.14,0-0.254-0.114-0.254-0.254v-1.015c0-0.14,0.114-0.254,0.254-0.254s0.254,0.114,0.254,0.254v1.015
			C225.197,125.358,225.085,125.47,224.943,125.47z"/>
	</g>
	<g>
		<path d="M224.943,168.2c-0.14,0-0.254-0.114-0.254-0.254v-1.942c0-0.14,0.114-0.254,0.254-0.254s0.254,0.114,0.254,0.254v1.942
			C225.197,168.087,225.085,168.2,224.943,168.2z M224.943,164.316c-0.14,0-0.254-0.114-0.254-0.254v-1.942
			c0-0.14,0.114-0.254,0.254-0.254s0.254,0.114,0.254,0.254v1.942C225.197,164.202,225.085,164.316,224.943,164.316z
			 M224.943,160.432c-0.14,0-0.254-0.114-0.254-0.254v-1.942c0-0.14,0.114-0.254,0.254-0.254s0.254,0.114,0.254,0.254v1.942
			C225.197,160.318,225.085,160.432,224.943,160.432z M224.943,156.547c-0.14,0-0.254-0.114-0.254-0.254v-1.942
			c0-0.14,0.114-0.254,0.254-0.254s0.254,0.114,0.254,0.254v1.942C225.197,156.432,225.085,156.547,224.943,156.547z
			 M224.943,152.663c-0.14,0-0.254-0.114-0.254-0.254v-1.942c0-0.14,0.114-0.254,0.254-0.254s0.254,0.114,0.254,0.254v1.942
			C225.197,152.548,225.085,152.663,224.943,152.663z M224.943,148.779c-0.14,0-0.254-0.114-0.254-0.254v-1.942
			c0-0.14,0.114-0.254,0.254-0.254s0.254,0.114,0.254,0.254v1.942C225.197,148.664,225.085,148.779,224.943,148.779z
			 M224.943,144.894c-0.14,0-0.254-0.114-0.254-0.254v-1.942c0-0.14,0.114-0.254,0.254-0.254s0.254,0.114,0.254,0.254v1.942
			C225.197,144.78,225.085,144.894,224.943,144.894z M224.943,141.009c-0.14,0-0.254-0.114-0.254-0.254v-1.942
			c0-0.14,0.114-0.254,0.254-0.254s0.254,0.114,0.254,0.254v1.942C225.197,140.895,225.085,141.009,224.943,141.009z
			 M224.943,137.125c-0.14,0-0.254-0.114-0.254-0.254v-1.942c0-0.14,0.114-0.254,0.254-0.254s0.254,0.114,0.254,0.254v1.942
			C225.197,137.011,225.085,137.125,224.943,137.125z M224.943,133.24c-0.14,0-0.254-0.114-0.254-0.254v-1.942
			c0-0.14,0.114-0.254,0.254-0.254s0.254,0.114,0.254,0.254v1.942C225.197,133.127,225.085,133.24,224.943,133.24z M224.943,129.356
			c-0.14,0-0.254-0.114-0.254-0.254v-1.943c0-0.14,0.114-0.254,0.254-0.254s0.254,0.114,0.254,0.254v1.942
			C225.197,129.242,225.085,129.356,224.943,129.356z"/>
	</g>
	<g>
		<path d="M224.943,171.158c-0.14,0-0.254-0.114-0.254-0.254v-1.015c0-0.14,0.114-0.254,0.254-0.254s0.254,0.114,0.254,0.254v1.015
			C225.197,171.044,225.085,171.158,224.943,171.158z"/>
	</g>
</g>
</svg>
