
<svg version="1.1" id="chart" class="center" xmlns="http://www.w3.org/2000/svg" xmlns:xlink="http://www.w3.org/1999/xlink" x="0px" y="0px"
	 width="235.488px" height="512.974px" viewBox="0 0 235.488 512.974" enable-background="new 0 0 235.488 512.974"
	 xml:space="preserve">
<g>
	<g>
		<line fill="#FFFFFF" x1="76.537" y1="57.176" x2="124.293" y2="57.176"/>
		<path d="M124.293,58.176H76.537c-0.552,0-1-0.448-1-1c0-0.552,0.448-1,1-1h47.756c0.552,0,1,0.448,1,1
			C125.293,57.728,124.845,58.176,124.293,58.176z"/>
	</g>
	<g>
		<path fill="none" stroke="#000000" stroke-width="2" stroke-linecap="round" stroke-miterlimit="10" d="M87.344,62.971"/>
	</g>
	<g>
		<path d="M102.645,80.471c-4.012,0-7.275-3.264-7.275-7.275c0-4.012,3.264-7.276,7.275-7.276c1.667,0,3.296,0.578,4.587,1.627
			c0.428,0.348,0.494,0.978,0.145,1.407c-0.348,0.429-0.978,0.494-1.407,0.145c-0.949-0.771-2.099-1.179-3.325-1.179
			c-2.909,0-5.275,2.367-5.275,5.276c0,2.909,2.367,5.275,5.275,5.275c0.803,0,1.574-0.176,2.292-0.522
			c0.497-0.24,1.095-0.032,1.335,0.465c0.24,0.497,0.032,1.095-0.465,1.335C104.816,80.228,103.753,80.471,102.645,80.471z"/>
	</g>
	<g>
		<path d="M107.213,75.373c-1.667,0-3.296-0.578-4.587-1.627c-0.428-0.348-0.494-0.978-0.145-1.407
			c0.349-0.429,0.978-0.493,1.407-0.145c0.949,0.771,2.099,1.179,3.325,1.179c2.909,0,5.275-2.367,5.275-5.276
			c0-2.909-2.367-5.275-5.275-5.275H85.667c-0.552,0-1-0.448-1-1c0-0.552,0.448-1,1-1h21.546c4.012,0,7.275,3.264,7.275,7.275
			C114.489,72.109,111.225,75.373,107.213,75.373z"/>
	</g>
	<g>
		<path d="M133.499,61.708c-0.282,0-0.563-0.119-0.761-0.351c-0.359-0.419-0.309-1.051,0.111-1.41
			c2.767-2.365,4.355-5.807,4.355-9.443c0-6.846-5.57-12.416-12.415-12.416s-12.416,5.57-12.416,12.416c0,0.552-0.448,1-1,1
			c-0.552,0-1-0.448-1-1c0-7.949,6.467-14.416,14.416-14.416c7.949,0,14.415,6.467,14.415,14.416c0,4.222-1.843,8.218-5.056,10.964
			C133.96,61.629,133.729,61.708,133.499,61.708z"/>
	</g>
	<g>
		<path d="M106.601,51.64h-6.494c-0.276,0-0.5-0.224-0.5-0.5c0-0.276,0.224-0.5,0.5-0.5h6.494c0.276,0,0.5,0.224,0.5,0.5
			C107.101,51.416,106.878,51.64,106.601,51.64z"/>
	</g>
	<g>
		<path d="M149.29,51.64h-6.494c-0.276,0-0.5-0.224-0.5-0.5c0-0.276,0.224-0.5,0.5-0.5h6.494c0.276,0,0.5,0.224,0.5,0.5
			C149.79,51.416,149.567,51.64,149.29,51.64z"/>
	</g>
	<g>
		<path d="M111.193,37.588c-0.128,0-0.256-0.049-0.354-0.146l-4.592-4.592c-0.195-0.195-0.195-0.512,0-0.707
			c0.195-0.195,0.512-0.195,0.707,0l4.592,4.592c0.195,0.195,0.195,0.512,0,0.707C111.449,37.54,111.321,37.588,111.193,37.588z"/>
	</g>
	<g>
		<path d="M143.059,69.454c-0.128,0-0.256-0.049-0.354-0.146l-4.592-4.592c-0.195-0.195-0.195-0.512,0-0.707
			c0.195-0.195,0.512-0.195,0.707,0l4.592,4.592c0.195,0.195,0.195,0.512,0,0.707C143.314,69.405,143.186,69.454,143.059,69.454z"/>
	</g>
	<g>
		<path d="M138.205,37.589c-0.128,0-0.256-0.049-0.354-0.146c-0.195-0.195-0.195-0.512,0-0.707l4.592-4.592
			c0.195-0.195,0.512-0.195,0.707,0c0.195,0.195,0.195,0.512,0,0.707l-4.592,4.592C138.46,37.541,138.332,37.589,138.205,37.589z"/>
	</g>
	<g>
		<path d="M124.789,32.045c-0.276,0-0.5-0.224-0.5-0.5v-6.494c0-0.276,0.224-0.5,0.5-0.5c0.276,0,0.5,0.224,0.5,0.5v6.494
			C125.289,31.822,125.065,32.045,124.789,32.045z"/>
	</g>
	<g>
		<path d="M56.601,190.757c-0.552,0-1-0.448-1-1v-10.453c0-0.552,0.448-1,1-1c0.552,0,1,0.448,1,1v10.453
			C57.601,190.309,57.153,190.757,56.601,190.757z"/>
	</g>
	<g>
		<path d="M71.926,203.026c-0.129,0-0.26-0.025-0.386-0.078l-9.639-4.043c-0.509-0.214-0.749-0.8-0.536-1.309
			c0.214-0.509,0.798-0.748,1.309-0.536l9.639,4.044c0.509,0.214,0.749,0.8,0.536,1.309
			C72.688,202.795,72.316,203.026,71.926,203.026z"/>
	</g>
	<g>
		<path d="M41.5,203.026c-0.391,0-0.762-0.231-0.923-0.614c-0.213-0.509,0.026-1.095,0.536-1.309l9.639-4.044
			c0.51-0.211,1.096,0.026,1.309,0.536c0.213,0.509-0.026,1.095-0.536,1.309l-9.639,4.043
			C41.76,203.001,41.629,203.026,41.5,203.026z"/>
	</g>
	<g>
		<path d="M56.601,199.327c-1.905,0-3.454-1.55-3.454-3.455c0-1.905,1.549-3.454,3.454-3.454c1.905,0,3.454,1.549,3.454,3.454
			C60.055,197.777,58.506,199.327,56.601,199.327z M56.601,194.417c-0.802,0-1.454,0.652-1.454,1.454
			c0,0.802,0.652,1.455,1.454,1.455c0.802,0,1.454-0.653,1.454-1.455C58.055,195.07,57.403,194.417,56.601,194.417z"/>
	</g>
	<g>
		<path d="M54.601,229.462l1-26.437c0-0.553,0.448-1,1-1c0.552,0,1,0.447,1,1l1,26.437
			C58.601,230.015,54.601,230.015,54.601,229.462z"/>
	</g>
	<g>
		<g>
			<path d="M172.776,201.002h-10.06c-1.789,0-3.245-1.456-3.245-3.244v-5.123c0-1.79,1.456-3.245,3.245-3.245h10.06
				c1.789,0,3.245,1.456,3.245,3.245v5.123C176.021,199.547,174.565,201.002,172.776,201.002z M162.716,191.39
				c-0.686,0-1.245,0.559-1.245,1.245v5.123c0,0.686,0.558,1.244,1.245,1.244h10.06c0.687,0,1.245-0.558,1.245-1.244v-5.123
				c0-0.687-0.558-1.245-1.245-1.245H162.716z"/>
		</g>
		<g>
			<path d="M191.208,201.002h-10.06c-1.789,0-3.245-1.456-3.245-3.244v-5.123c0-1.79,1.456-3.245,3.245-3.245h10.06
				c1.79,0,3.245,1.456,3.245,3.245v5.123C194.454,199.547,192.998,201.002,191.208,201.002z M181.149,191.39
				c-0.686,0-1.245,0.559-1.245,1.245v5.123c0,0.686,0.559,1.244,1.245,1.244h10.06c0.687,0,1.245-0.558,1.245-1.244v-5.123
				c0-0.687-0.559-1.245-1.245-1.245H181.149z"/>
		</g>
		<g>
			<path d="M172.776,214.513h-10.06c-1.789,0-3.245-1.456-3.245-3.245v-5.123c0-1.79,1.456-3.245,3.245-3.245h10.06
				c1.789,0,3.245,1.456,3.245,3.245v5.123C176.021,213.058,174.565,214.513,172.776,214.513z M162.716,204.9
				c-0.686,0-1.245,0.559-1.245,1.245v5.123c0,0.687,0.558,1.245,1.245,1.245h10.06c0.687,0,1.245-0.559,1.245-1.245v-5.123
				c0-0.687-0.558-1.245-1.245-1.245H162.716z"/>
		</g>
		<g>
			<path d="M191.208,214.513h-10.06c-1.789,0-3.245-1.456-3.245-3.245v-5.123c0-1.79,1.456-3.245,3.245-3.245h10.06
				c1.79,0,3.245,1.456,3.245,3.245v5.123C194.454,213.058,192.998,214.513,191.208,214.513z M181.149,204.9
				c-0.686,0-1.245,0.559-1.245,1.245v5.123c0,0.687,0.559,1.245,1.245,1.245h10.06c0.687,0,1.245-0.559,1.245-1.245v-5.123
				c0-0.687-0.559-1.245-1.245-1.245H181.149z"/>
		</g>
	</g>
	<g>
		<g>
			<g>
				<path d="M39.049,353.346c-0.062,0-0.124-0.012-0.182-0.034l-11.566-4.514c-0.192-0.075-0.318-0.26-0.318-0.466v-9.053
					c0-0.13,0.05-0.254,0.141-0.348l5.501-5.69c0.055-0.057,0.123-0.1,0.198-0.125l14.431-4.938c0.202-0.07,0.431-0.001,0.561,0.172
					l6.633,8.816c0.065,0.087,0.101,0.192,0.101,0.301v9.781c0,0.209-0.13,0.396-0.325,0.469l-14.998,5.596
					C39.167,353.335,39.108,353.346,39.049,353.346z M27.982,347.991l11.07,4.32l14.494-5.407v-9.268l-6.314-8.393l-13.973,4.781
					l-5.277,5.457V347.991z"/>
			</g>
			<g>
				<path d="M38.545,352.149c-0.276,0-0.5-0.224-0.5-0.5v-9.054l-5.532-8.056c-0.156-0.228-0.099-0.539,0.129-0.695
					c0.228-0.156,0.54-0.098,0.695,0.129l5.62,8.184c0.057,0.083,0.088,0.183,0.088,0.283v9.209
					C39.045,351.925,38.822,352.149,38.545,352.149z"/>
			</g>
			<g>
				<path d="M38.545,342.94c-0.211,0-0.408-0.135-0.476-0.348c-0.084-0.263,0.061-0.544,0.323-0.629l15.501-4.971
					c0.264-0.082,0.545,0.061,0.629,0.324c0.085,0.263-0.06,0.544-0.323,0.629l-15.502,4.971
					C38.647,342.932,38.596,342.94,38.545,342.94z"/>
			</g>
		</g>
		<g>
			<polygon points="34.115,350.92 31.343,349.839 31.343,343.287 34.115,344.27 			"/>
		</g>
	</g>
	<g>
		<g>
			<g>
				<path d="M77.166,353.346c-0.062,0-0.123-0.012-0.182-0.034l-11.566-4.514c-0.192-0.075-0.318-0.26-0.318-0.466v-9.053
					c0-0.13,0.05-0.254,0.141-0.348l5.501-5.69c0.055-0.057,0.123-0.1,0.198-0.125l14.431-4.938c0.202-0.07,0.431-0.001,0.561,0.172
					l6.633,8.816c0.065,0.087,0.101,0.192,0.101,0.301v9.781c0,0.209-0.13,0.396-0.325,0.469l-14.998,5.596
					C77.284,353.335,77.225,353.346,77.166,353.346z M66.1,347.991l11.07,4.32l14.494-5.407v-9.268l-6.314-8.393l-13.973,4.781
					l-5.277,5.457V347.991z"/>
			</g>
			<g>
				<path d="M76.663,352.149c-0.276,0-0.5-0.224-0.5-0.5v-9.054l-5.532-8.056c-0.156-0.228-0.099-0.539,0.129-0.695
					c0.228-0.156,0.54-0.098,0.695,0.129l5.62,8.184c0.057,0.083,0.088,0.183,0.088,0.283v9.209
					C77.163,351.925,76.939,352.149,76.663,352.149z"/>
			</g>
			<g>
				<path d="M76.663,342.94c-0.211,0-0.408-0.135-0.476-0.348c-0.084-0.263,0.061-0.544,0.323-0.629l15.501-4.971
					c0.263-0.082,0.545,0.061,0.629,0.324c0.085,0.263-0.06,0.544-0.323,0.629l-15.501,4.971
					C76.765,342.932,76.713,342.94,76.663,342.94z"/>
			</g>
		</g>
		<g>
			<polygon points="72.232,350.92 69.46,349.839 69.46,343.287 72.232,344.27 			"/>
		</g>
	</g>
	<g>
		<g>
			<g>
				<path d="M115.284,353.346c-0.062,0-0.124-0.012-0.182-0.034l-11.566-4.514c-0.192-0.075-0.318-0.26-0.318-0.466v-9.053
					c0-0.13,0.05-0.254,0.141-0.348l5.501-5.69c0.055-0.057,0.123-0.1,0.198-0.125l14.431-4.938c0.203-0.07,0.431-0.001,0.561,0.172
					l6.633,8.816c0.065,0.087,0.101,0.192,0.101,0.301v9.781c0,0.209-0.13,0.396-0.325,0.469l-14.998,5.596
					C115.402,353.335,115.343,353.346,115.284,353.346z M104.217,347.991l11.07,4.32l14.494-5.407v-9.268l-6.314-8.393
					l-13.973,4.781l-5.277,5.457V347.991z"/>
			</g>
			<g>
				<path d="M114.78,352.149c-0.276,0-0.5-0.224-0.5-0.5v-9.054l-5.532-8.056c-0.156-0.228-0.099-0.539,0.129-0.695
					c0.228-0.156,0.54-0.098,0.695,0.129l5.62,8.184c0.057,0.083,0.088,0.183,0.088,0.283v9.209
					C115.28,351.925,115.056,352.149,114.78,352.149z"/>
			</g>
			<g>
				<path d="M114.78,342.94c-0.212,0-0.408-0.135-0.476-0.348c-0.085-0.263,0.061-0.544,0.323-0.629l15.502-4.971
					c0.265-0.082,0.545,0.061,0.629,0.324c0.085,0.263-0.061,0.544-0.323,0.629l-15.502,4.971
					C114.882,342.932,114.83,342.94,114.78,342.94z"/>
			</g>
		</g>
		<g>
			<polygon points="110.35,350.92 107.578,349.839 107.578,343.287 110.35,344.27 			"/>
		</g>
	</g>
	<g>
		<g>
			<g>
				<path d="M153.401,353.346c-0.062,0-0.124-0.012-0.182-0.034l-11.566-4.514c-0.192-0.075-0.318-0.26-0.318-0.466v-9.053
					c0-0.13,0.05-0.254,0.141-0.348l5.501-5.69c0.055-0.057,0.122-0.1,0.198-0.125l14.431-4.938c0.203-0.07,0.431-0.001,0.561,0.172
					l6.633,8.816c0.066,0.087,0.101,0.192,0.101,0.301v9.781c0,0.209-0.13,0.396-0.325,0.469l-14.998,5.596
					C153.519,353.335,153.46,353.346,153.401,353.346z M142.334,347.991l11.07,4.32l14.494-5.407v-9.268l-6.314-8.393l-13.973,4.781
					l-5.277,5.457V347.991z"/>
			</g>
			<g>
				<path d="M152.897,352.149c-0.276,0-0.5-0.224-0.5-0.5v-9.054l-5.532-8.056c-0.156-0.228-0.099-0.539,0.129-0.695
					c0.227-0.156,0.539-0.098,0.695,0.129l5.62,8.184c0.057,0.083,0.088,0.183,0.088,0.283v9.209
					C153.397,351.925,153.174,352.149,152.897,352.149z"/>
			</g>
			<g>
				<path d="M152.897,342.94c-0.211,0-0.408-0.135-0.476-0.348c-0.085-0.263,0.061-0.544,0.323-0.629l15.501-4.971
					c0.265-0.082,0.545,0.061,0.629,0.324c0.085,0.263-0.061,0.544-0.323,0.629l-15.501,4.971
					C152.999,342.932,152.948,342.94,152.897,342.94z"/>
			</g>
		</g>
		<g>
			<polygon points="148.467,350.92 145.695,349.839 145.695,343.287 148.467,344.27 			"/>
		</g>
	</g>
	<g>
		<g>
			<g>
				<path d="M191.518,353.346c-0.062,0-0.124-0.012-0.182-0.034l-11.566-4.514c-0.192-0.075-0.318-0.26-0.318-0.466v-9.053
					c0-0.13,0.05-0.254,0.141-0.348l5.501-5.69c0.055-0.057,0.123-0.1,0.198-0.125l14.431-4.938c0.202-0.07,0.431-0.001,0.561,0.172
					l6.633,8.816c0.065,0.087,0.101,0.192,0.101,0.301v9.781c0,0.209-0.13,0.396-0.325,0.469l-14.998,5.596
					C191.636,353.335,191.577,353.346,191.518,353.346z M180.452,347.991l11.07,4.32l14.494-5.407v-9.268l-6.314-8.393
					l-13.973,4.781l-5.277,5.457V347.991z"/>
			</g>
			<g>
				<path d="M191.015,352.149c-0.276,0-0.5-0.224-0.5-0.5v-9.054l-5.532-8.056c-0.156-0.228-0.099-0.539,0.129-0.695
					c0.229-0.156,0.54-0.098,0.695,0.129l5.62,8.184c0.057,0.083,0.088,0.183,0.088,0.283v9.209
					C191.515,351.925,191.291,352.149,191.015,352.149z"/>
			</g>
			<g>
				<path d="M191.015,342.94c-0.211,0-0.408-0.135-0.476-0.348c-0.085-0.263,0.061-0.544,0.323-0.629l15.501-4.971
					c0.265-0.082,0.545,0.061,0.629,0.324c0.084,0.263-0.061,0.544-0.323,0.629l-15.501,4.971
					C191.117,342.932,191.065,342.94,191.015,342.94z"/>
			</g>
		</g>
		<g>
			<polygon points="186.584,350.92 183.812,349.839 183.812,343.287 186.584,344.27 			"/>
		</g>
	</g>
	<g>
		<g>
			<g>
				<path d="M39.049,388.316c-0.062,0-0.124-0.012-0.182-0.034l-11.566-4.514c-0.192-0.075-0.318-0.26-0.318-0.466v-9.053
					c0-0.13,0.05-0.254,0.141-0.348l5.501-5.689c0.055-0.057,0.123-0.1,0.198-0.125l14.431-4.938
					c0.202-0.07,0.431-0.002,0.561,0.172l6.633,8.816c0.065,0.087,0.101,0.192,0.101,0.301v9.781c0,0.209-0.13,0.396-0.325,0.469
					l-14.998,5.596C39.167,388.305,39.108,388.316,39.049,388.316z M27.982,382.96l11.07,4.32l14.494-5.407v-9.268l-6.314-8.393
					l-13.973,4.781l-5.277,5.457V382.96z"/>
			</g>
			<g>
				<path d="M38.545,387.119c-0.276,0-0.5-0.224-0.5-0.5v-9.054l-5.532-8.056c-0.156-0.228-0.099-0.539,0.129-0.695
					c0.228-0.155,0.54-0.098,0.695,0.129l5.62,8.184c0.057,0.083,0.088,0.183,0.088,0.283v9.209
					C39.045,386.895,38.822,387.119,38.545,387.119z"/>
			</g>
			<g>
				<path d="M38.545,377.91c-0.211,0-0.408-0.135-0.476-0.348c-0.084-0.263,0.061-0.544,0.323-0.629l15.501-4.971
					c0.264-0.081,0.545,0.06,0.629,0.324c0.085,0.263-0.06,0.544-0.323,0.629l-15.502,4.971
					C38.647,377.902,38.596,377.91,38.545,377.91z"/>
			</g>
		</g>
		<g>
			<polygon points="34.115,385.89 31.343,384.809 31.343,378.256 34.115,379.24 			"/>
		</g>
	</g>
	<g>
		<g>
			<g>
				<path d="M77.166,388.316c-0.062,0-0.123-0.012-0.182-0.034l-11.566-4.514c-0.192-0.075-0.318-0.26-0.318-0.466v-9.053
					c0-0.13,0.05-0.254,0.141-0.348l5.501-5.689c0.055-0.057,0.123-0.1,0.198-0.125l14.431-4.938
					c0.202-0.07,0.431-0.002,0.561,0.172l6.633,8.816c0.065,0.087,0.101,0.192,0.101,0.301v9.781c0,0.209-0.13,0.396-0.325,0.469
					l-14.998,5.596C77.284,388.305,77.225,388.316,77.166,388.316z M66.1,382.96l11.07,4.32l14.494-5.407v-9.268l-6.314-8.393
					l-13.973,4.781l-5.277,5.457V382.96z"/>
			</g>
			<g>
				<path d="M76.663,387.119c-0.276,0-0.5-0.224-0.5-0.5v-9.054l-5.532-8.056c-0.156-0.228-0.099-0.539,0.129-0.695
					c0.228-0.155,0.54-0.098,0.695,0.129l5.62,8.184c0.057,0.083,0.088,0.183,0.088,0.283v9.209
					C77.163,386.895,76.939,387.119,76.663,387.119z"/>
			</g>
			<g>
				<path d="M76.663,377.91c-0.211,0-0.408-0.135-0.476-0.348c-0.084-0.263,0.061-0.544,0.323-0.629l15.501-4.971
					c0.263-0.081,0.545,0.06,0.629,0.324c0.085,0.263-0.06,0.544-0.323,0.629l-15.501,4.971
					C76.765,377.902,76.713,377.91,76.663,377.91z"/>
			</g>
		</g>
		<g>
			<polygon points="72.232,385.89 69.46,384.809 69.46,378.256 72.232,379.24 			"/>
		</g>
	</g>
	<g>
		<g>
			<g>
				<path d="M115.284,388.316c-0.062,0-0.124-0.012-0.182-0.034l-11.566-4.514c-0.192-0.075-0.318-0.26-0.318-0.466v-9.053
					c0-0.13,0.05-0.254,0.141-0.348l5.501-5.689c0.055-0.057,0.123-0.1,0.198-0.125l14.431-4.938
					c0.203-0.07,0.431-0.002,0.561,0.172l6.633,8.816c0.065,0.087,0.101,0.192,0.101,0.301v9.781c0,0.209-0.13,0.396-0.325,0.469
					l-14.998,5.596C115.402,388.305,115.343,388.316,115.284,388.316z M104.217,382.96l11.07,4.32l14.494-5.407v-9.268l-6.314-8.393
					l-13.973,4.781l-5.277,5.457V382.96z"/>
			</g>
			<g>
				<path d="M114.78,387.119c-0.276,0-0.5-0.224-0.5-0.5v-9.054l-5.532-8.056c-0.156-0.228-0.099-0.539,0.129-0.695
					c0.228-0.155,0.54-0.098,0.695,0.129l5.62,8.184c0.057,0.083,0.088,0.183,0.088,0.283v9.209
					C115.28,386.895,115.056,387.119,114.78,387.119z"/>
			</g>
			<g>
				<path d="M114.78,377.91c-0.212,0-0.408-0.135-0.476-0.348c-0.085-0.263,0.061-0.544,0.323-0.629l15.502-4.971
					c0.265-0.081,0.545,0.06,0.629,0.324c0.085,0.263-0.061,0.544-0.323,0.629l-15.502,4.971
					C114.882,377.902,114.83,377.91,114.78,377.91z"/>
			</g>
		</g>
		<g>
			<polygon points="110.35,385.89 107.578,384.809 107.578,378.256 110.35,379.24 			"/>
		</g>
	</g>
	<g>
		<g>
			<g>
				<path d="M153.401,388.316c-0.062,0-0.124-0.012-0.182-0.034l-11.566-4.514c-0.192-0.075-0.318-0.26-0.318-0.466v-9.053
					c0-0.13,0.05-0.254,0.141-0.348l5.501-5.689c0.055-0.057,0.122-0.1,0.198-0.125l14.431-4.938
					c0.203-0.07,0.431-0.002,0.561,0.172l6.633,8.816c0.066,0.087,0.101,0.192,0.101,0.301v9.781c0,0.209-0.13,0.396-0.325,0.469
					l-14.998,5.596C153.519,388.305,153.46,388.316,153.401,388.316z M142.334,382.96l11.07,4.32l14.494-5.407v-9.268l-6.314-8.393
					l-13.973,4.781l-5.277,5.457V382.96z"/>
			</g>
			<g>
				<path d="M152.897,387.119c-0.276,0-0.5-0.224-0.5-0.5v-9.054l-5.532-8.056c-0.156-0.228-0.099-0.539,0.129-0.695
					c0.227-0.155,0.539-0.098,0.695,0.129l5.62,8.184c0.057,0.083,0.088,0.183,0.088,0.283v9.209
					C153.397,386.895,153.174,387.119,152.897,387.119z"/>
			</g>
			<g>
				<path d="M152.897,377.91c-0.211,0-0.408-0.135-0.476-0.348c-0.085-0.263,0.061-0.544,0.323-0.629l15.501-4.971
					c0.265-0.081,0.545,0.06,0.629,0.324c0.085,0.263-0.061,0.544-0.323,0.629l-15.501,4.971
					C152.999,377.902,152.948,377.91,152.897,377.91z"/>
			</g>
		</g>
		<g>
			<polygon points="148.467,385.89 145.695,384.809 145.695,378.256 148.467,379.24 			"/>
		</g>
	</g>
	<g>
		<g>
			<g>
				<path d="M191.518,388.316c-0.062,0-0.124-0.012-0.182-0.034l-11.566-4.514c-0.192-0.075-0.318-0.26-0.318-0.466v-9.053
					c0-0.13,0.05-0.254,0.141-0.348l5.501-5.689c0.055-0.057,0.123-0.1,0.198-0.125l14.431-4.938
					c0.202-0.07,0.431-0.002,0.561,0.172l6.633,8.816c0.065,0.087,0.101,0.192,0.101,0.301v9.781c0,0.209-0.13,0.396-0.325,0.469
					l-14.998,5.596C191.636,388.305,191.577,388.316,191.518,388.316z M180.452,382.96l11.07,4.32l14.494-5.407v-9.268l-6.314-8.393
					l-13.973,4.781l-5.277,5.457V382.96z"/>
			</g>
			<g>
				<path d="M191.015,387.119c-0.276,0-0.5-0.224-0.5-0.5v-9.054l-5.532-8.056c-0.156-0.228-0.099-0.539,0.129-0.695
					c0.229-0.155,0.54-0.098,0.695,0.129l5.62,8.184c0.057,0.083,0.088,0.183,0.088,0.283v9.209
					C191.515,386.895,191.291,387.119,191.015,387.119z"/>
			</g>
			<g>
				<path d="M191.015,377.91c-0.211,0-0.408-0.135-0.476-0.348c-0.085-0.263,0.061-0.544,0.323-0.629l15.501-4.971
					c0.265-0.081,0.545,0.06,0.629,0.324c0.084,0.263-0.061,0.544-0.323,0.629l-15.501,4.971
					C191.117,377.902,191.065,377.91,191.015,377.91z"/>
			</g>
		</g>
		<g>
			<polygon points="186.584,385.89 183.812,384.809 183.812,378.256 186.584,379.24 			"/>
		</g>
	</g>
	<g>
		<g>
			<path d="M54.969,255.265c-0.138,0-0.25-0.112-0.25-0.25v-1c0-0.138,0.112-0.25,0.25-0.25c0.138,0,0.25,0.112,0.25,0.25v1
				C55.219,255.153,55.107,255.265,54.969,255.265z"/>
		</g>
		<g>
			<path d="M54.969,297.352c-0.138,0-0.25-0.112-0.25-0.25v-1.913c0-0.138,0.112-0.25,0.25-0.25c0.138,0,0.25,0.112,0.25,0.25v1.913
				C55.219,297.24,55.107,297.352,54.969,297.352z M54.969,293.526c-0.138,0-0.25-0.112-0.25-0.25v-1.913
				c0-0.138,0.112-0.25,0.25-0.25c0.138,0,0.25,0.112,0.25,0.25v1.913C55.219,293.414,55.107,293.526,54.969,293.526z M54.969,289.7
				c-0.138,0-0.25-0.112-0.25-0.25v-1.913c0-0.138,0.112-0.25,0.25-0.25c0.138,0,0.25,0.112,0.25,0.25v1.913
				C55.219,289.587,55.107,289.7,54.969,289.7z M54.969,285.874c-0.138,0-0.25-0.112-0.25-0.25v-1.913c0-0.138,0.112-0.25,0.25-0.25
				c0.138,0,0.25,0.112,0.25,0.25v1.913C55.219,285.761,55.107,285.874,54.969,285.874z M54.969,282.047
				c-0.138,0-0.25-0.112-0.25-0.25v-1.913c0-0.138,0.112-0.25,0.25-0.25c0.138,0,0.25,0.112,0.25,0.25v1.913
				C55.219,281.935,55.107,282.047,54.969,282.047z M54.969,278.222c-0.138,0-0.25-0.112-0.25-0.25v-1.913
				c0-0.138,0.112-0.25,0.25-0.25c0.138,0,0.25,0.112,0.25,0.25v1.913C55.219,278.11,55.107,278.222,54.969,278.222z
				 M54.969,274.396c-0.138,0-0.25-0.112-0.25-0.25v-1.913c0-0.138,0.112-0.25,0.25-0.25c0.138,0,0.25,0.112,0.25,0.25v1.913
				C55.219,274.284,55.107,274.396,54.969,274.396z M54.969,270.57c-0.138,0-0.25-0.112-0.25-0.25v-1.913
				c0-0.138,0.112-0.25,0.25-0.25c0.138,0,0.25,0.112,0.25,0.25v1.913C55.219,270.458,55.107,270.57,54.969,270.57z M54.969,266.744
				c-0.138,0-0.25-0.112-0.25-0.25v-1.913c0-0.138,0.112-0.25,0.25-0.25c0.138,0,0.25,0.112,0.25,0.25v1.913
				C55.219,266.631,55.107,266.744,54.969,266.744z M54.969,262.917c-0.138,0-0.25-0.112-0.25-0.25v-1.913
				c0-0.138,0.112-0.25,0.25-0.25c0.138,0,0.25,0.112,0.25,0.25v1.913C55.219,262.806,55.107,262.917,54.969,262.917z
				 M54.969,259.091c-0.138,0-0.25-0.112-0.25-0.25v-1.913c0-0.138,0.112-0.25,0.25-0.25c0.138,0,0.25,0.112,0.25,0.25v1.913
				C55.219,258.98,55.107,259.091,54.969,259.091z"/>
		</g>
		<g>
			<path d="M54.969,300.265c-0.138,0-0.25-0.112-0.25-0.25v-1c0-0.138,0.112-0.25,0.25-0.25c0.138,0,0.25,0.112,0.25,0.25v1
				C55.219,300.153,55.107,300.265,54.969,300.265z"/>
		</g>
	</g>
	<g>
		<g>
			<path d="M176.73,255.389c-0.138,0-0.25-0.112-0.25-0.25v-1c0-0.138,0.112-0.25,0.25-0.25c0.138,0,0.25,0.112,0.25,0.25v1
				C176.98,255.277,176.869,255.389,176.73,255.389z"/>
		</g>
		<g>
			<path d="M176.73,297.476c-0.138,0-0.25-0.112-0.25-0.25v-1.913c0-0.138,0.112-0.25,0.25-0.25c0.138,0,0.25,0.112,0.25,0.25v1.913
				C176.98,297.364,176.869,297.476,176.73,297.476z M176.73,293.65c-0.138,0-0.25-0.112-0.25-0.25v-1.913
				c0-0.138,0.112-0.25,0.25-0.25c0.138,0,0.25,0.112,0.25,0.25v1.913C176.98,293.538,176.869,293.65,176.73,293.65z
				 M176.73,289.824c-0.138,0-0.25-0.112-0.25-0.25v-1.913c0-0.138,0.112-0.25,0.25-0.25c0.138,0,0.25,0.112,0.25,0.25v1.913
				C176.98,289.711,176.869,289.824,176.73,289.824z M176.73,285.998c-0.138,0-0.25-0.112-0.25-0.25v-1.913
				c0-0.138,0.112-0.25,0.25-0.25c0.138,0,0.25,0.112,0.25,0.25v1.913C176.98,285.885,176.869,285.998,176.73,285.998z
				 M176.73,282.171c-0.138,0-0.25-0.112-0.25-0.25v-1.913c0-0.138,0.112-0.25,0.25-0.25c0.138,0,0.25,0.112,0.25,0.25v1.913
				C176.98,282.059,176.869,282.171,176.73,282.171z M176.73,278.346c-0.138,0-0.25-0.112-0.25-0.25v-1.913
				c0-0.138,0.112-0.25,0.25-0.25c0.138,0,0.25,0.112,0.25,0.25v1.913C176.98,278.234,176.869,278.346,176.73,278.346z
				 M176.73,274.52c-0.138,0-0.25-0.112-0.25-0.25v-1.913c0-0.138,0.112-0.25,0.25-0.25c0.138,0,0.25,0.112,0.25,0.25v1.913
				C176.98,274.408,176.869,274.52,176.73,274.52z M176.73,270.694c-0.138,0-0.25-0.112-0.25-0.25v-1.913
				c0-0.138,0.112-0.25,0.25-0.25c0.138,0,0.25,0.112,0.25,0.25v1.913C176.98,270.582,176.869,270.694,176.73,270.694z
				 M176.73,266.868c-0.138,0-0.25-0.112-0.25-0.25v-1.913c0-0.138,0.112-0.25,0.25-0.25c0.138,0,0.25,0.112,0.25,0.25v1.913
				C176.98,266.755,176.869,266.868,176.73,266.868z M176.73,263.042c-0.138,0-0.25-0.112-0.25-0.25v-1.913
				c0-0.138,0.112-0.25,0.25-0.25c0.138,0,0.25,0.112,0.25,0.25v1.913C176.98,262.93,176.869,263.042,176.73,263.042z
				 M176.73,259.215c-0.138,0-0.25-0.112-0.25-0.25v-1.913c0-0.138,0.112-0.25,0.25-0.25c0.138,0,0.25,0.112,0.25,0.25v1.913
				C176.98,259.104,176.869,259.215,176.73,259.215z"/>
		</g>
		<g>
			<path d="M176.73,300.389c-0.138,0-0.25-0.112-0.25-0.25v-1c0-0.138,0.112-0.25,0.25-0.25c0.138,0,0.25,0.112,0.25,0.25v1
				C176.98,300.277,176.869,300.389,176.73,300.389z"/>
		</g>
	</g>
	<g>
		<g>
			<path d="M176.606,154.265c-0.138,0-0.25-0.112-0.25-0.25v-0.5c0-0.138,0.112-0.25,0.25-0.25s0.25,0.112,0.25,0.25v0.5
				C176.856,154.153,176.745,154.265,176.606,154.265z"/>
		</g>
		<g>
			<path d="M176.606,150.808c-0.138,0-0.25-0.112-0.25-0.25v-0.986c0-0.138,0.112-0.25,0.25-0.25s0.25,0.112,0.25,0.25v0.986
				C176.856,150.696,176.745,150.808,176.606,150.808z M176.606,146.864c-0.138,0-0.25-0.112-0.25-0.25v-0.986
				c0-0.138,0.112-0.25,0.25-0.25s0.25,0.112,0.25,0.25v0.986C176.856,146.752,176.745,146.864,176.606,146.864z M176.606,142.921
				c-0.138,0-0.25-0.112-0.25-0.25v-0.986c0-0.138,0.112-0.25,0.25-0.25s0.25,0.112,0.25,0.25v0.986
				C176.856,142.809,176.745,142.921,176.606,142.921z M176.606,138.978c-0.138,0-0.25-0.112-0.25-0.25v-0.986
				c0-0.138,0.112-0.25,0.25-0.25s0.25,0.112,0.25,0.25v0.986C176.856,138.866,176.745,138.978,176.606,138.978z M176.606,135.035
				c-0.138,0-0.25-0.112-0.25-0.25v-0.666l-0.08-0.08c-0.098-0.098-0.098-0.256,0-0.354c0.098-0.098,0.256-0.098,0.354,0
				l0.227,0.227v0.873C176.856,134.923,176.745,135.035,176.606,135.035z M174.362,132.021c-0.064,0-0.128-0.024-0.177-0.073
				l-0.697-0.697c-0.098-0.098-0.098-0.256,0-0.354c0.098-0.098,0.256-0.098,0.354,0l0.697,0.697c0.098,0.098,0.098,0.256,0,0.354
				C174.49,131.997,174.426,132.021,174.362,132.021z M171.574,129.232c-0.064,0-0.128-0.024-0.177-0.073l-0.697-0.697
				c-0.098-0.098-0.098-0.256,0-0.354c0.098-0.098,0.256-0.098,0.354,0l0.697,0.697c0.098,0.098,0.098,0.256,0,0.354
				C171.702,129.208,171.638,129.232,171.574,129.232z M168.786,126.444c-0.064,0-0.128-0.024-0.177-0.073l-0.697-0.697
				c-0.098-0.098-0.098-0.256,0-0.354c0.098-0.098,0.256-0.098,0.354,0l0.697,0.697c0.098,0.098,0.098,0.256,0,0.354
				C168.914,126.419,168.85,126.444,168.786,126.444z M165.997,123.656c-0.064,0-0.128-0.024-0.177-0.073l-0.697-0.697
				c-0.098-0.098-0.098-0.256,0-0.354c0.098-0.098,0.256-0.098,0.354,0l0.697,0.697c0.098,0.098,0.098,0.256,0,0.354
				C166.125,123.631,166.061,123.656,165.997,123.656z M163.209,120.867c-0.064,0-0.128-0.024-0.177-0.073l-0.697-0.697
				c-0.098-0.098-0.098-0.256,0-0.354c0.098-0.098,0.256-0.098,0.354,0l0.697,0.697c0.098,0.098,0.098,0.256,0,0.354
				C163.337,120.843,163.273,120.867,163.209,120.867z M160.42,118.079c-0.064,0-0.128-0.024-0.177-0.073l-0.697-0.697
				c-0.098-0.098-0.098-0.256,0-0.354c0.098-0.098,0.256-0.098,0.354,0l0.697,0.697c0.098,0.098,0.098,0.256,0,0.354
				C160.548,118.055,160.484,118.079,160.42,118.079z M157.632,115.291c-0.064,0-0.128-0.024-0.177-0.073l-0.697-0.697
				c-0.098-0.098-0.098-0.256,0-0.354c0.098-0.098,0.256-0.098,0.354,0l0.697,0.697c0.098,0.098,0.098,0.256,0,0.354
				C157.76,115.266,157.696,115.291,157.632,115.291z M154.844,112.502c-0.064,0-0.128-0.024-0.177-0.073l-0.697-0.697
				c-0.098-0.098-0.098-0.256,0-0.354c0.098-0.098,0.256-0.098,0.354,0l0.697,0.697c0.098,0.098,0.098,0.256,0,0.354
				C154.972,112.478,154.908,112.502,154.844,112.502z M152.056,109.714c-0.064,0-0.128-0.024-0.177-0.073l-0.697-0.697
				c-0.098-0.098-0.098-0.256,0-0.354c0.098-0.098,0.256-0.098,0.354,0l0.697,0.697c0.098,0.098,0.098,0.256,0,0.354
				C152.184,109.689,152.12,109.714,152.056,109.714z M149.267,106.926c-0.064,0-0.128-0.024-0.177-0.073l-0.697-0.697
				c-0.098-0.098-0.098-0.256,0-0.354c0.098-0.098,0.256-0.098,0.354,0l0.697,0.697c0.098,0.098,0.098,0.256,0,0.354
				C149.395,106.901,149.331,106.926,149.267,106.926z"/>
		</g>
		<g>
			<path d="M146.479,104.137c-0.064,0-0.128-0.024-0.177-0.073l-0.354-0.354c-0.098-0.098-0.098-0.256,0-0.354
				c0.098-0.098,0.256-0.098,0.354,0l0.354,0.354c0.098,0.098,0.098,0.256,0,0.354C146.607,104.113,146.543,104.137,146.479,104.137
				z"/>
		</g>
	</g>
	<g>
		<g>
			<path d="M54.969,154.265c-0.138,0-0.25-0.112-0.25-0.25v-0.5c0-0.138,0.112-0.25,0.25-0.25c0.138,0,0.25,0.112,0.25,0.25v0.5
				C55.219,154.153,55.107,154.265,54.969,154.265z"/>
		</g>
		<g>
			<path d="M54.969,150.808c-0.138,0-0.25-0.112-0.25-0.25v-0.986c0-0.138,0.112-0.25,0.25-0.25c0.138,0,0.25,0.112,0.25,0.25v0.986
				C55.219,150.696,55.107,150.808,54.969,150.808z M54.969,146.864c-0.138,0-0.25-0.112-0.25-0.25v-0.986
				c0-0.138,0.112-0.25,0.25-0.25c0.138,0,0.25,0.112,0.25,0.25v0.986C55.219,146.752,55.107,146.864,54.969,146.864z
				 M54.969,142.921c-0.138,0-0.25-0.112-0.25-0.25v-0.986c0-0.138,0.112-0.25,0.25-0.25c0.138,0,0.25,0.112,0.25,0.25v0.986
				C55.219,142.809,55.107,142.921,54.969,142.921z M54.969,138.978c-0.138,0-0.25-0.112-0.25-0.25v-0.986
				c0-0.138,0.112-0.25,0.25-0.25c0.138,0,0.25,0.112,0.25,0.25v0.986C55.219,138.866,55.107,138.978,54.969,138.978z
				 M54.969,135.035c-0.138,0-0.25-0.112-0.25-0.25v-0.873l0.227-0.227c0.098-0.098,0.256-0.098,0.354,0
				c0.098,0.098,0.098,0.256,0,0.354l-0.08,0.08v0.666C55.219,134.923,55.107,135.035,54.969,135.035z M57.213,132.021
				c-0.064,0-0.128-0.024-0.177-0.073c-0.098-0.098-0.098-0.256,0-0.354l0.697-0.697c0.098-0.098,0.256-0.098,0.354,0
				c0.098,0.098,0.098,0.256,0,0.354l-0.697,0.697C57.341,131.997,57.277,132.021,57.213,132.021z M60.002,129.232
				c-0.064,0-0.128-0.024-0.177-0.073c-0.098-0.098-0.098-0.256,0-0.354l0.697-0.697c0.098-0.098,0.256-0.098,0.354,0
				c0.098,0.098,0.098,0.256,0,0.354l-0.697,0.697C60.13,129.208,60.066,129.232,60.002,129.232z M62.79,126.444
				c-0.064,0-0.128-0.024-0.177-0.073c-0.098-0.098-0.098-0.256,0-0.354l0.697-0.697c0.098-0.098,0.256-0.098,0.354,0
				c0.098,0.098,0.098,0.256,0,0.354l-0.697,0.697C62.918,126.42,62.854,126.444,62.79,126.444z M65.579,123.656
				c-0.064,0-0.128-0.024-0.177-0.073c-0.098-0.098-0.098-0.256,0-0.354l0.697-0.697c0.098-0.098,0.256-0.098,0.354,0
				c0.098,0.098,0.098,0.256,0,0.354l-0.697,0.697C65.706,123.631,65.643,123.656,65.579,123.656z M68.367,120.868
				c-0.064,0-0.128-0.024-0.177-0.073c-0.098-0.098-0.098-0.256,0-0.354l0.697-0.697c0.098-0.098,0.256-0.098,0.354,0
				c0.098,0.098,0.098,0.256,0,0.354l-0.697,0.697C68.495,120.843,68.431,120.868,68.367,120.868z M71.155,118.079
				c-0.064,0-0.128-0.024-0.177-0.073c-0.098-0.098-0.098-0.256,0-0.354l0.697-0.697c0.098-0.098,0.256-0.098,0.354,0
				c0.098,0.098,0.098,0.256,0,0.354l-0.697,0.697C71.283,118.055,71.219,118.079,71.155,118.079z M73.943,115.291
				c-0.064,0-0.128-0.024-0.177-0.073c-0.098-0.098-0.098-0.256,0-0.354l0.697-0.697c0.098-0.098,0.256-0.098,0.354,0
				c0.098,0.098,0.098,0.256,0,0.354l-0.697,0.697C74.071,115.267,74.007,115.291,73.943,115.291z M76.732,112.502
				c-0.064,0-0.128-0.024-0.177-0.073c-0.098-0.098-0.098-0.256,0-0.354l0.697-0.697c0.098-0.098,0.256-0.098,0.354,0
				c0.098,0.098,0.098,0.256,0,0.354l-0.697,0.697C76.86,112.478,76.796,112.502,76.732,112.502z M79.52,109.714
				c-0.064,0-0.128-0.024-0.177-0.073c-0.098-0.098-0.098-0.256,0-0.354l0.697-0.697c0.098-0.098,0.256-0.098,0.354,0
				c0.098,0.098,0.098,0.256,0,0.354l-0.697,0.697C79.648,109.69,79.584,109.714,79.52,109.714z M82.309,106.926
				c-0.064,0-0.128-0.024-0.177-0.073c-0.098-0.098-0.098-0.256,0-0.354l0.697-0.697c0.098-0.098,0.256-0.098,0.354,0
				c0.098,0.098,0.098,0.256,0,0.354l-0.697,0.697C82.436,106.901,82.372,106.926,82.309,106.926z"/>
		</g>
		<g>
			<path d="M85.097,104.137c-0.064,0-0.128-0.024-0.177-0.073c-0.098-0.098-0.098-0.256,0-0.354l0.354-0.354
				c0.098-0.098,0.256-0.098,0.353,0c0.098,0.098,0.098,0.256,0,0.354l-0.353,0.354C85.225,104.113,85.161,104.137,85.097,104.137z"
				/>
		</g>
	</g>
	<g>
		<g>
			<path d="M184.683,149.498c-0.064,0-0.128-0.024-0.177-0.073c-0.098-0.098-0.098-0.256,0-0.354l0.354-0.354
				c0.098-0.098,0.256-0.098,0.354,0c0.098,0.098,0.098,0.256,0,0.354l-0.354,0.354
				C184.811,149.473,184.747,149.498,184.683,149.498z"/>
		</g>
		<g>
			<path d="M176.606,156.978c-0.189,0-0.375-0.031-0.554-0.093c-0.13-0.045-0.2-0.188-0.155-0.318c0.046-0.13,0.189-0.2,0.318-0.155
				c0.254,0.088,0.533,0.087,0.784-0.001c0.131-0.047,0.273,0.023,0.318,0.153c0.046,0.13-0.023,0.273-0.153,0.318
				C176.985,156.946,176.797,156.978,176.606,156.978z M173.998,154.966c-0.064,0-0.128-0.024-0.177-0.073l-0.684-0.683
				c-0.098-0.098-0.098-0.256,0-0.354c0.098-0.098,0.256-0.098,0.354,0l0.684,0.683c0.098,0.098,0.098,0.256,0,0.354
				C174.126,154.942,174.062,154.966,173.998,154.966z M179.217,154.963c-0.064,0-0.128-0.024-0.177-0.073
				c-0.098-0.098-0.098-0.256,0-0.354l0.683-0.683c0.098-0.098,0.256-0.098,0.354,0c0.098,0.098,0.098,0.256,0,0.354l-0.683,0.683
				C179.345,154.939,179.281,154.963,179.217,154.963z M171.265,152.233c-0.064,0-0.128-0.024-0.177-0.073l-0.683-0.684
				c-0.098-0.098-0.098-0.256,0-0.354c0.098-0.098,0.256-0.098,0.354,0l0.683,0.684c0.098,0.098,0.098,0.256,0,0.354
				C171.393,152.209,171.329,152.233,171.265,152.233z M181.95,152.23c-0.064,0-0.128-0.024-0.177-0.073
				c-0.098-0.098-0.098-0.256,0-0.353l0.683-0.683c0.098-0.098,0.256-0.098,0.354,0c0.098,0.098,0.098,0.256,0,0.354l-0.683,0.683
				C182.078,152.206,182.014,152.23,181.95,152.23z"/>
		</g>
		<g>
			<path d="M168.53,149.498c-0.064,0-0.128-0.024-0.177-0.073l-0.354-0.354c-0.098-0.098-0.098-0.256,0-0.354
				c0.098-0.098,0.256-0.098,0.354,0l0.354,0.354c0.098,0.098,0.098,0.256,0,0.354C168.658,149.473,168.594,149.498,168.53,149.498z
				"/>
		</g>
	</g>
	<g>
		<g>
			<path d="M63.046,149.498c-0.064,0-0.128-0.024-0.177-0.073c-0.098-0.098-0.098-0.256,0-0.354l0.354-0.354
				c0.098-0.098,0.256-0.098,0.354,0c0.098,0.098,0.098,0.256,0,0.354l-0.354,0.354C63.174,149.473,63.11,149.498,63.046,149.498z"
				/>
		</g>
		<g>
			<path d="M54.969,156.978c-0.189,0-0.375-0.031-0.554-0.093c-0.13-0.045-0.2-0.188-0.155-0.318c0.045-0.13,0.19-0.2,0.318-0.155
				c0.254,0.088,0.533,0.087,0.784-0.001c0.13-0.047,0.273,0.023,0.318,0.153c0.046,0.13-0.023,0.273-0.153,0.318
				C55.348,156.946,55.16,156.978,54.969,156.978z M52.361,154.966c-0.064,0-0.128-0.024-0.177-0.073L51.5,154.21
				c-0.098-0.098-0.098-0.256,0-0.354c0.098-0.098,0.256-0.098,0.354,0l0.684,0.683c0.098,0.098,0.098,0.256,0,0.354
				C52.489,154.942,52.425,154.966,52.361,154.966z M57.58,154.963c-0.064,0-0.128-0.024-0.177-0.073
				c-0.098-0.098-0.098-0.256,0-0.354l0.683-0.683c0.098-0.098,0.256-0.098,0.353,0c0.098,0.098,0.098,0.256,0,0.354l-0.683,0.683
				C57.708,154.939,57.644,154.963,57.58,154.963z M49.628,152.233c-0.064,0-0.128-0.024-0.177-0.073l-0.683-0.684
				c-0.098-0.098-0.098-0.256,0-0.354c0.098-0.098,0.256-0.098,0.354,0l0.683,0.684c0.098,0.098,0.098,0.256,0,0.354
				C49.756,152.209,49.692,152.233,49.628,152.233z M60.313,152.23c-0.064,0-0.128-0.024-0.177-0.073
				c-0.098-0.098-0.098-0.256,0-0.353l0.683-0.683c0.098-0.098,0.256-0.098,0.354,0c0.098,0.098,0.098,0.256,0,0.354l-0.683,0.683
				C60.441,152.206,60.377,152.23,60.313,152.23z"/>
		</g>
		<g>
			<path d="M46.893,149.498c-0.064,0-0.128-0.024-0.177-0.073l-0.354-0.354c-0.098-0.098-0.098-0.256,0-0.354
				c0.098-0.098,0.256-0.098,0.354,0l0.354,0.354c0.098,0.098,0.098,0.256,0,0.354C47.02,149.473,46.956,149.498,46.893,149.498z"/>
		</g>
	</g>
	<g>
		<g>
			<path d="M176.606,418.93c-0.138,0-0.25-0.112-0.25-0.25v-0.5c0-0.138,0.112-0.25,0.25-0.25s0.25,0.112,0.25,0.25v0.5
				C176.856,418.818,176.745,418.93,176.606,418.93z"/>
		</g>
		<g>
			<path d="M151.007,466.03c-0.064,0-0.128-0.024-0.177-0.073c-0.098-0.098-0.098-0.256,0-0.353l0.729-0.729
				c0.098-0.098,0.256-0.098,0.354,0c0.098,0.098,0.098,0.256,0,0.354l-0.729,0.728C151.135,466.005,151.071,466.03,151.007,466.03z
				 M153.921,463.116c-0.064,0-0.128-0.024-0.177-0.073c-0.098-0.098-0.098-0.256,0-0.354l0.729-0.728
				c0.098-0.098,0.256-0.098,0.354,0c0.098,0.098,0.098,0.256,0,0.353l-0.729,0.729
				C154.049,463.091,153.985,463.116,153.921,463.116z M156.836,460.201c-0.064,0-0.128-0.024-0.177-0.073
				c-0.098-0.098-0.098-0.256,0-0.353l0.729-0.729c0.098-0.098,0.256-0.098,0.354,0c0.098,0.098,0.098,0.256,0,0.354l-0.729,0.728
				C156.964,460.176,156.9,460.201,156.836,460.201z M159.75,457.287c-0.064,0-0.128-0.024-0.177-0.073
				c-0.098-0.098-0.098-0.256,0-0.353l0.729-0.729c0.098-0.098,0.256-0.098,0.354,0c0.098,0.098,0.098,0.256,0,0.354l-0.729,0.728
				C159.878,457.262,159.814,457.287,159.75,457.287z M162.665,454.372c-0.064,0-0.128-0.024-0.177-0.073
				c-0.098-0.098-0.098-0.256,0-0.353l0.729-0.729c0.098-0.098,0.256-0.098,0.354,0c0.098,0.098,0.098,0.256,0,0.354l-0.729,0.728
				C162.793,454.347,162.729,454.372,162.665,454.372z M165.579,451.458c-0.064,0-0.128-0.024-0.177-0.073
				c-0.098-0.098-0.098-0.256,0-0.353l0.729-0.729c0.098-0.098,0.256-0.098,0.354,0c0.098,0.098,0.098,0.256,0,0.354l-0.729,0.728
				C165.707,451.433,165.643,451.458,165.579,451.458z M168.494,448.543c-0.064,0-0.128-0.024-0.177-0.073
				c-0.098-0.098-0.098-0.256,0-0.353l0.729-0.73c0.098-0.098,0.256-0.098,0.353,0c0.098,0.098,0.098,0.256,0,0.354l-0.728,0.729
				C168.622,448.519,168.558,448.543,168.494,448.543z M171.408,445.628c-0.064,0-0.128-0.024-0.177-0.073
				c-0.098-0.098-0.098-0.256,0-0.353l0.729-0.729c0.098-0.098,0.256-0.098,0.354,0c0.098,0.098,0.098,0.256,0,0.354l-0.729,0.728
				C171.536,445.604,171.472,445.628,171.408,445.628z M174.323,442.714c-0.064,0-0.128-0.024-0.177-0.073
				c-0.098-0.098-0.098-0.256,0-0.353l0.729-0.729c0.098-0.098,0.256-0.098,0.354,0c0.098,0.098,0.098,0.256,0,0.354l-0.729,0.728
				C174.451,442.69,174.387,442.714,174.323,442.714z M176.606,439.539c-0.138,0-0.25-0.112-0.25-0.25v-1.031
				c0-0.138,0.112-0.25,0.25-0.25s0.25,0.112,0.25,0.25v1.031C176.856,439.426,176.745,439.539,176.606,439.539z M176.606,435.417
				c-0.138,0-0.25-0.112-0.25-0.25v-1.03c0-0.138,0.112-0.25,0.25-0.25s0.25,0.112,0.25,0.25v1.03
				C176.856,435.304,176.745,435.417,176.606,435.417z M176.606,431.294c-0.138,0-0.25-0.112-0.25-0.25v-1.03
				c0-0.138,0.112-0.25,0.25-0.25s0.25,0.112,0.25,0.25v1.03C176.856,431.182,176.745,431.294,176.606,431.294z M176.606,427.173
				c-0.138,0-0.25-0.112-0.25-0.25v-1.03c0-0.138,0.112-0.25,0.25-0.25s0.25,0.112,0.25,0.25v1.03
				C176.856,427.061,176.745,427.173,176.606,427.173z M176.606,423.051c-0.138,0-0.25-0.112-0.25-0.25v-1.03
				c0-0.138,0.112-0.25,0.25-0.25s0.25,0.112,0.25,0.25v1.03C176.856,422.939,176.745,423.051,176.606,423.051z"/>
		</g>
		<g>
			<path d="M148.467,468.57c-0.064,0-0.128-0.024-0.177-0.073c-0.098-0.098-0.098-0.256,0-0.354l0.354-0.353
				c0.098-0.098,0.256-0.098,0.354,0c0.098,0.098,0.098,0.256,0,0.353l-0.354,0.354C148.595,468.545,148.531,468.57,148.467,468.57z
				"/>
		</g>
	</g>
	<g>
		<g>
			<path d="M144.549,460.433c-0.13,0-0.24-0.101-0.249-0.233l-0.034-0.499c-0.009-0.138,0.095-0.257,0.232-0.266
				c0.135-0.023,0.256,0.093,0.267,0.232l0.034,0.499c0.009,0.138-0.095,0.257-0.232,0.266
				C144.56,460.433,144.555,460.433,144.549,460.433z"/>
		</g>
		<g>
			<path d="M146.135,471.629c-0.031,0-0.062-0.006-0.093-0.018c-0.352-0.141-0.65-0.4-0.838-0.732
				c-0.068-0.12-0.026-0.273,0.094-0.341c0.119-0.069,0.272-0.027,0.341,0.093c0.133,0.233,0.342,0.416,0.589,0.515
				c0.128,0.052,0.191,0.197,0.139,0.325C146.328,471.57,146.234,471.629,146.135,471.629z M149.014,471.575
				c-0.13,0-0.24-0.101-0.249-0.232c-0.009-0.138,0.095-0.258,0.232-0.267l0.964-0.066c0.135-0.025,0.256,0.094,0.267,0.232
				c0.009,0.138-0.095,0.258-0.232,0.267l-0.964,0.066C149.026,471.575,149.02,471.575,149.014,471.575z M152.87,471.309
				c-0.13,0-0.24-0.1-0.249-0.232c-0.009-0.138,0.095-0.258,0.232-0.267l0.964-0.066c0.136-0.031,0.256,0.094,0.267,0.232
				c0.009,0.138-0.095,0.258-0.232,0.267l-0.964,0.066C152.882,471.309,152.876,471.309,152.87,471.309z M145.081,468.144
				c-0.13,0-0.24-0.101-0.249-0.232l-0.067-0.964c-0.009-0.138,0.094-0.258,0.232-0.267c0.157-0.023,0.257,0.094,0.267,0.232
				l0.067,0.964c0.009,0.138-0.094,0.258-0.232,0.267C145.093,468.144,145.087,468.144,145.081,468.144z M144.815,464.289
				c-0.13,0-0.24-0.1-0.249-0.232l-0.066-0.964c-0.009-0.138,0.095-0.258,0.232-0.267c0.127-0.031,0.257,0.094,0.267,0.232
				l0.066,0.964c0.009,0.138-0.095,0.258-0.232,0.267C144.827,464.289,144.821,464.289,144.815,464.289z"/>
		</g>
		<g>
			<path d="M156.729,471.042c-0.13,0-0.24-0.1-0.249-0.233c-0.009-0.138,0.095-0.257,0.232-0.266l0.499-0.034
				c0.135-0.023,0.256,0.093,0.267,0.233c0.009,0.138-0.095,0.257-0.232,0.266l-0.499,0.034
				C156.741,471.042,156.735,471.042,156.729,471.042z"/>
		</g>
	</g>
	<g>
		<g>
			<g>
				<path d="M54.801,418.162c-0.138,0-0.25-0.112-0.25-0.25v-0.5c0-0.138,0.112-0.25,0.25-0.25c0.138,0,0.25,0.112,0.25,0.25v0.5
					C55.051,418.049,54.939,418.162,54.801,418.162z"/>
			</g>
			<g>
				<path d="M79.91,464.771c-0.064,0-0.128-0.025-0.177-0.073l-0.72-0.72c-0.098-0.098-0.098-0.256,0-0.354
					c0.098-0.098,0.256-0.098,0.354,0l0.72,0.72c0.098,0.098,0.098,0.256,0,0.354C80.038,464.747,79.974,464.771,79.91,464.771z
					 M77.031,461.891c-0.064,0-0.128-0.024-0.177-0.073l-0.72-0.72c-0.098-0.098-0.098-0.256,0-0.353
					c0.098-0.098,0.256-0.098,0.354,0l0.72,0.72c0.098,0.098,0.098,0.256,0,0.353C77.159,461.867,77.095,461.891,77.031,461.891z
					 M74.151,459.012c-0.064,0-0.128-0.024-0.177-0.073l-0.72-0.72c-0.098-0.098-0.098-0.256,0-0.353
					c0.098-0.098,0.256-0.098,0.354,0l0.72,0.72c0.098,0.098,0.098,0.256,0,0.353C74.279,458.988,74.215,459.012,74.151,459.012z
					 M71.272,456.132c-0.064,0-0.128-0.024-0.177-0.073l-0.72-0.72c-0.098-0.098-0.098-0.256,0-0.354
					c0.098-0.098,0.256-0.098,0.354,0l0.72,0.72c0.098,0.098,0.098,0.256,0,0.354C71.4,456.108,71.336,456.132,71.272,456.132z
					 M68.392,453.253c-0.064,0-0.128-0.024-0.177-0.073l-0.72-0.72c-0.098-0.098-0.098-0.256,0-0.353
					c0.098-0.098,0.256-0.098,0.354,0l0.72,0.72c0.098,0.098,0.098,0.256,0,0.353C68.52,453.229,68.456,453.253,68.392,453.253z
					 M65.513,450.374c-0.064,0-0.128-0.024-0.177-0.073l-0.72-0.72c-0.098-0.098-0.098-0.256,0-0.353
					c0.098-0.098,0.256-0.098,0.354,0l0.72,0.72c0.098,0.098,0.098,0.256,0,0.354C65.641,450.349,65.577,450.374,65.513,450.374z
					 M62.633,447.495c-0.064,0-0.128-0.024-0.177-0.073l-0.72-0.721c-0.098-0.098-0.098-0.256,0-0.354
					c0.098-0.098,0.256-0.098,0.354,0l0.72,0.721c0.098,0.098,0.098,0.256,0,0.354C62.761,447.47,62.697,447.495,62.633,447.495z
					 M59.754,444.615c-0.064,0-0.128-0.024-0.177-0.073l-0.72-0.72c-0.098-0.098-0.098-0.256,0-0.353
					c0.098-0.098,0.256-0.098,0.353,0l0.72,0.72c0.098,0.098,0.098,0.256,0,0.353C59.882,444.59,59.818,444.615,59.754,444.615z
					 M56.874,441.735c-0.064,0-0.128-0.024-0.177-0.073l-0.72-0.72c-0.098-0.098-0.098-0.256,0-0.354
					c0.098-0.098,0.256-0.098,0.354,0l0.72,0.72c0.098,0.098,0.098,0.256,0,0.354C57.002,441.71,56.938,441.735,56.874,441.735z
					 M54.801,438.522c-0.138,0-0.25-0.112-0.25-0.25v-1.017c0-0.138,0.112-0.25,0.25-0.25c0.138,0,0.25,0.112,0.25,0.25v1.017
					C55.051,438.41,54.939,438.522,54.801,438.522z M54.801,434.45c-0.138,0-0.25-0.112-0.25-0.25v-1.018
					c0-0.138,0.112-0.25,0.25-0.25c0.138,0,0.25,0.112,0.25,0.25v1.018C55.051,434.337,54.939,434.45,54.801,434.45z
					 M54.801,430.377c-0.138,0-0.25-0.112-0.25-0.25v-1.018c0-0.138,0.112-0.25,0.25-0.25c0.138,0,0.25,0.112,0.25,0.25v1.018
					C55.051,430.265,54.939,430.377,54.801,430.377z M54.801,426.305c-0.138,0-0.25-0.112-0.25-0.25v-1.017
					c0-0.138,0.112-0.25,0.25-0.25c0.138,0,0.25,0.112,0.25,0.25v1.017C55.051,426.193,54.939,426.305,54.801,426.305z
					 M54.801,422.233c-0.138,0-0.25-0.112-0.25-0.25v-1.018c0-0.138,0.112-0.25,0.25-0.25c0.138,0,0.25,0.112,0.25,0.25v1.018
					C55.051,422.121,54.939,422.233,54.801,422.233z"/>
			</g>
			<g>
				<path d="M82.423,467.285c-0.064,0-0.128-0.024-0.177-0.073l-0.354-0.354c-0.098-0.098-0.098-0.256,0-0.353
					c0.098-0.098,0.256-0.098,0.354,0l0.354,0.353c0.098,0.098,0.098,0.256,0,0.354C82.551,467.26,82.487,467.285,82.423,467.285z"
					/>
			</g>
		</g>
		<g>
			<g>
				<path d="M86.858,459.665c-0.006,0-0.012,0-0.018-0.001c-0.138-0.009-0.242-0.128-0.232-0.266l0.034-0.499
					c0.01-0.139,0.132-0.254,0.267-0.232c0.138,0.009,0.242,0.128,0.232,0.266l-0.034,0.499
					C87.098,459.564,86.988,459.665,86.858,459.665z"/>
			</g>
			<g>
				<path d="M85.272,470.861c-0.099,0-0.193-0.06-0.232-0.157c-0.051-0.128,0.011-0.273,0.139-0.325
					c0.247-0.099,0.456-0.281,0.589-0.515c0.068-0.121,0.22-0.163,0.341-0.093c0.12,0.067,0.162,0.221,0.094,0.341
					c-0.189,0.331-0.486,0.591-0.838,0.731C85.335,470.855,85.303,470.861,85.272,470.861z M82.393,470.806
					c-0.006,0-0.012,0-0.018-0.001l-0.964-0.066c-0.138-0.009-0.242-0.129-0.232-0.267c0.01-0.138,0.132-0.255,0.267-0.231
					l0.964,0.066c0.138,0.009,0.242,0.129,0.232,0.267C82.633,470.706,82.523,470.806,82.393,470.806z M78.537,470.541
					c-0.006,0-0.012,0-0.018-0.001l-0.964-0.066c-0.138-0.009-0.242-0.129-0.232-0.267c0.01-0.138,0.131-0.261,0.267-0.231
					l0.964,0.066c0.138,0.009,0.242,0.129,0.232,0.267C78.777,470.44,78.667,470.541,78.537,470.541z M86.326,467.376
					c-0.006,0-0.012,0-0.018-0.001c-0.138-0.009-0.242-0.129-0.232-0.267l0.067-0.964c0.01-0.137,0.125-0.252,0.267-0.231
					c0.138,0.009,0.242,0.129,0.232,0.267l-0.067,0.964C86.566,467.275,86.456,467.376,86.326,467.376z M86.592,463.52
					c-0.006,0-0.012,0-0.018-0.001c-0.138-0.009-0.242-0.129-0.232-0.267l0.066-0.964c0.009-0.138,0.129-0.261,0.267-0.231
					c0.138,0.009,0.242,0.129,0.232,0.267l-0.066,0.964C86.832,463.419,86.722,463.52,86.592,463.52z"/>
			</g>
			<g>
				<path d="M74.678,470.274c-0.006,0-0.012,0-0.018-0.001l-0.499-0.034c-0.138-0.009-0.242-0.128-0.232-0.266
					c0.01-0.139,0.132-0.253,0.267-0.232l0.499,0.034c0.138,0.009,0.242,0.128,0.232,0.266
					C74.917,470.173,74.808,470.274,74.678,470.274z"/>
			</g>
		</g>
	</g>
	<g>
		<g>
			<path d="M184.33,295.138c-0.064,0-0.128-0.024-0.177-0.073c-0.098-0.098-0.098-0.256,0-0.353l0.707-0.707
				c0.098-0.098,0.256-0.098,0.354,0c0.098,0.098,0.098,0.256,0,0.353l-0.707,0.707C184.457,295.114,184.393,295.138,184.33,295.138
				z"/>
		</g>
		<g>
			<path d="M176.61,302.265c-0.406,0.006-0.754-0.128-1.052-0.363c-0.108-0.086-0.127-0.243-0.041-0.352
				c0.086-0.108,0.244-0.125,0.351-0.041c0.209,0.165,0.471,0.256,0.738,0.256c0.001,0,0.003,0,0.004,0
				c0.267,0,0.528-0.091,0.737-0.257c0.109-0.086,0.266-0.068,0.351,0.04c0.086,0.107,0.068,0.265-0.04,0.351
				C177.36,302.135,176.989,302.265,176.61,302.265z M174.343,300.598c-0.064,0-0.128-0.024-0.177-0.073l-1.364-1.364
				c-0.098-0.098-0.098-0.256,0-0.353c0.098-0.098,0.256-0.098,0.354,0l1.364,1.364c0.098,0.098,0.098,0.256,0,0.354
				C174.471,300.574,174.407,300.598,174.343,300.598z M178.872,300.595c-0.064,0-0.128-0.024-0.177-0.073
				c-0.098-0.098-0.098-0.256,0-0.353l1.364-1.364c0.098-0.098,0.256-0.098,0.354,0c0.098,0.098,0.098,0.256,0,0.353l-1.364,1.364
				C179,300.571,178.936,300.595,178.872,300.595z M171.614,297.87c-0.064,0-0.128-0.024-0.177-0.073l-1.364-1.364
				c-0.098-0.098-0.098-0.256,0-0.354c0.098-0.098,0.256-0.098,0.354,0l1.364,1.364c0.098,0.098,0.098,0.256,0,0.354
				C171.742,297.845,171.678,297.87,171.614,297.87z M181.601,297.867c-0.064,0-0.128-0.025-0.177-0.073
				c-0.098-0.098-0.098-0.256,0-0.354l1.364-1.364c0.098-0.098,0.256-0.098,0.354,0c0.098,0.098,0.098,0.256,0,0.354l-1.364,1.364
				C181.729,297.842,181.665,297.867,181.601,297.867z"/>
		</g>
		<g>
			<path d="M168.883,295.138c-0.064,0-0.128-0.024-0.177-0.073l-0.707-0.707c-0.098-0.098-0.098-0.256,0-0.353
				c0.098-0.098,0.256-0.098,0.354,0l0.707,0.707c0.098,0.098,0.098,0.256,0,0.353C169.011,295.114,168.947,295.138,168.883,295.138
				z"/>
		</g>
	</g>
	<g>
		<g>
			<path d="M62.692,295.138c-0.064,0-0.128-0.024-0.177-0.073c-0.098-0.098-0.098-0.256,0-0.353l0.707-0.707
				c0.098-0.098,0.256-0.098,0.354,0c0.098,0.098,0.098,0.256,0,0.353l-0.707,0.707C62.82,295.114,62.756,295.138,62.692,295.138z"
				/>
		</g>
		<g>
			<path d="M54.973,302.265c-0.002,0-0.003,0-0.005,0c-0.378,0-0.75-0.129-1.046-0.363c-0.108-0.086-0.127-0.243-0.042-0.352
				c0.085-0.108,0.244-0.125,0.351-0.041c0.209,0.165,0.471,0.256,0.738,0.256c0.001,0,0.003,0,0.004,0
				c0.267,0,0.528-0.091,0.737-0.257c0.109-0.086,0.266-0.068,0.352,0.04c0.086,0.107,0.068,0.265-0.04,0.351
				C55.723,302.135,55.351,302.265,54.973,302.265z M52.705,300.598c-0.064,0-0.128-0.024-0.177-0.073l-1.364-1.364
				c-0.098-0.098-0.098-0.256,0-0.353c0.098-0.098,0.256-0.098,0.354,0l1.364,1.364c0.098,0.098,0.098,0.256,0,0.354
				C52.833,300.574,52.769,300.598,52.705,300.598z M57.235,300.595c-0.064,0-0.128-0.024-0.177-0.073
				c-0.098-0.098-0.098-0.256,0-0.353l1.364-1.364c0.098-0.098,0.256-0.098,0.354,0c0.098,0.098,0.098,0.256,0,0.353l-1.364,1.364
				C57.363,300.571,57.299,300.595,57.235,300.595z M49.977,297.87c-0.064,0-0.128-0.024-0.177-0.073l-1.364-1.364
				c-0.098-0.098-0.098-0.256,0-0.354c0.098-0.098,0.256-0.098,0.354,0l1.364,1.364c0.098,0.098,0.098,0.256,0,0.354
				C50.105,297.845,50.041,297.87,49.977,297.87z M59.964,297.867c-0.064,0-0.128-0.025-0.177-0.073
				c-0.098-0.098-0.098-0.256,0-0.354l1.364-1.364c0.098-0.098,0.256-0.098,0.354,0c0.098,0.098,0.098,0.256,0,0.354l-1.364,1.364
				C60.092,297.842,60.028,297.867,59.964,297.867z"/>
		</g>
		<g>
			<path d="M47.246,295.138c-0.064,0-0.128-0.024-0.177-0.073l-0.707-0.707c-0.098-0.098-0.098-0.256,0-0.353
				c0.098-0.098,0.256-0.098,0.354,0l0.707,0.707c0.098,0.098,0.098,0.256,0,0.353C47.374,295.114,47.31,295.138,47.246,295.138z"/>
		</g>
	</g>
</g>
<g>
	<g>
		<path d="M118.861,471.777c-0.352-0.256-0.71-0.472-1.072-0.648c-0.363-0.176-0.731-0.306-1.104-0.391v3.071
			c1.216,0.31,2.098,0.72,2.648,1.232c0.549,0.513,0.824,1.195,0.824,2.049v0.031c0,0.438-0.082,0.836-0.248,1.192
			c-0.166,0.357-0.397,0.669-0.696,0.936c-0.299,0.266-0.656,0.484-1.072,0.656c-0.416,0.17-0.88,0.277-1.392,0.319v1.567h-1.392
			v-1.6c-0.704-0.085-1.373-0.262-2.008-0.527c-0.634-0.268-1.224-0.619-1.768-1.057l1.024-1.472c0.458,0.374,0.912,0.68,1.36,0.92
			c0.448,0.239,0.933,0.403,1.456,0.487v-3.151c-0.587-0.149-1.094-0.319-1.52-0.513c-0.427-0.191-0.782-0.418-1.064-0.68
			c-0.283-0.261-0.494-0.562-0.632-0.904c-0.139-0.34-0.208-0.735-0.208-1.184v-0.031c0-0.427,0.079-0.818,0.24-1.176
			c0.16-0.357,0.389-0.667,0.688-0.929c0.298-0.261,0.653-0.475,1.064-0.64c0.411-0.166,0.867-0.27,1.368-0.312v-0.928h1.392v0.96
			c0.576,0.075,1.109,0.214,1.6,0.416c0.491,0.202,0.961,0.47,1.408,0.8L118.861,471.777z M113.885,471.985
			c0,0.171,0.021,0.325,0.064,0.464c0.043,0.139,0.123,0.27,0.24,0.393c0.117,0.123,0.274,0.234,0.472,0.336
			c0.197,0.102,0.451,0.199,0.76,0.296v-2.832c-0.512,0.054-0.896,0.2-1.152,0.44c-0.256,0.24-0.384,0.535-0.384,0.888V471.985z
			 M118.269,477.201c0-0.352-0.11-0.645-0.328-0.879c-0.219-0.235-0.638-0.443-1.256-0.625v2.912
			c0.512-0.053,0.904-0.199,1.176-0.439c0.272-0.24,0.408-0.553,0.408-0.937V477.201z"/>
	</g>
	<g>
		<path d="M115.78,487.579c-7.167,0-12.998-5.831-12.998-12.998c0-7.167,5.831-12.997,12.998-12.997s12.997,5.83,12.997,12.997
			C128.777,481.748,122.947,487.579,115.78,487.579z M115.78,463.584c-6.064,0-10.998,4.934-10.998,10.997
			c0,6.065,4.934,10.998,10.998,10.998c6.064,0,10.997-4.934,10.997-10.998C126.777,468.517,121.844,463.584,115.78,463.584z"/>
	</g>
</g>
</svg>
