
<svg version="1.1" id="keypad" xmlns="http://www.w3.org/2000/svg" xmlns:xlink="http://www.w3.org/1999/xlink" x="0px" y="0px"  viewBox="14.81 17.896 57.809 37.908" enable-background="new 14.81 17.896 57.809 37.908" xml:space="preserve">
<g>
	<path d="M51.069,55.804H36.36c-0.932,0-1.689-0.759-1.689-1.69v-14.71c0-0.932,0.758-1.689,1.689-1.689h14.709
		c0.932,0,1.69,0.758,1.69,1.689v14.709C52.759,55.045,52.001,55.804,51.069,55.804z M36.36,38.215
		c-0.656,0-1.189,0.533-1.189,1.189v14.709c0,0.656,0.533,1.19,1.189,1.19h14.709c0.656,0,1.19-0.534,1.19-1.19V39.404
		c0-0.656-0.534-1.189-1.19-1.189H36.36z"/>
</g>
<g>
	<path d="M51.069,35.986H36.36c-0.932,0-1.689-0.759-1.689-1.692V19.586c0-0.932,0.758-1.69,1.689-1.69h14.709
		c0.932,0,1.69,0.758,1.69,1.69v14.709C52.759,35.228,52.001,35.986,51.069,35.986z M36.36,18.396c-0.656,0-1.189,0.533-1.189,1.19
		v14.709c0,0.657,0.533,1.192,1.189,1.192h14.709c0.656,0,1.19-0.534,1.19-1.192V19.586c0-0.656-0.534-1.19-1.19-1.19H36.36z"/>
</g>
<g>
	<path d="M70.929,55.804H56.22c-0.932,0-1.69-0.759-1.69-1.69v-14.71c0-0.932,0.758-1.689,1.69-1.689h14.709
		c0.932,0,1.69,0.758,1.69,1.689v14.709C72.619,55.045,71.861,55.804,70.929,55.804z M56.22,38.215c-0.656,0-1.19,0.533-1.19,1.189
		v14.709c0,0.656,0.534,1.19,1.19,1.19h14.709c0.656,0,1.19-0.534,1.19-1.19V39.404c0-0.656-0.534-1.189-1.19-1.189H56.22z"/>
</g>
<g>
	<path d="M31.209,55.804H16.5c-0.932,0-1.69-0.759-1.69-1.69v-14.71c0-0.932,0.758-1.689,1.69-1.689h14.709
		c0.932,0,1.689,0.758,1.689,1.689v14.709C32.899,55.045,32.141,55.804,31.209,55.804z M16.5,38.215c-0.656,0-1.19,0.533-1.19,1.189
		v14.709c0,0.656,0.534,1.19,1.19,1.19h14.709c0.656,0,1.189-0.534,1.189-1.19V39.404c0-0.656-0.533-1.189-1.189-1.189H16.5z"/>
</g>
<g>
	<path d="M25.175,51.225c-0.063,0-0.128-0.025-0.177-0.074l-3.706-3.705c-0.378-0.379-0.378-0.994,0-1.373l3.706-3.705
		c0.098-0.098,0.256-0.098,0.354,0s0.098,0.256,0,0.354l-3.706,3.705c-0.183,0.184-0.183,0.482,0,0.666l3.706,3.705
		c0.098,0.098,0.098,0.256,0,0.353C25.303,51.199,25.24,51.225,25.175,51.225z"/>
</g>
<g>
	<path d="M62.616,51.225c-0.064,0-0.128-0.025-0.177-0.074c-0.098-0.098-0.098-0.256,0-0.353l3.706-3.705
		c0.183-0.184,0.183-0.481,0-0.665l-3.706-3.706c-0.098-0.098-0.098-0.256,0-0.354s0.256-0.098,0.354,0l3.706,3.706
		c0.378,0.378,0.378,0.994,0,1.372l-3.706,3.705C62.744,51.199,62.68,51.225,62.616,51.225z"/>
</g>
</svg>
