<svg version="1.1" id="Layer_1" xmlns="http://www.w3.org/2000/svg" xmlns:xlink="http://www.w3.org/1999/xlink" x="0px" y="0px"
	 width="100" viewBox="0 0 49.75 20.083" enable-background="new 0 0 49.75 20.083" xml:space="preserve">
<g>
	<path d="M46.865,9.481l-3.706-3.706c-0.098-0.098-0.256-0.098-0.354,0c-0.098,0.098-0.098,0.256,0,0.354l3.706,3.706
		c0.024,0.024,0.037,0.055,0.055,0.083H19.749c-0.091-5.262-4.392-9.516-9.675-9.516c-5.34,0-9.684,4.344-9.684,9.684
		s4.344,9.684,9.684,9.684c5.228,0,9.489-4.166,9.667-9.351h26.826c-0.018,0.028-0.03,0.058-0.055,0.083l-3.706,3.705
		c-0.098,0.098-0.098,0.256,0,0.354c0.049,0.049,0.112,0.074,0.177,0.074c0.065,0,0.128-0.025,0.177-0.074l3.706-3.705
		C47.244,10.475,47.244,9.859,46.865,9.481z M10.074,19.268c-5.063,0-9.184-4.12-9.184-9.184s4.12-9.184,9.184-9.184
		s9.184,4.12,9.184,9.184S15.137,19.268,10.074,19.268z"/>
	<path d="M49.073,9.481l-3.706-3.706c-0.098-0.098-0.256-0.098-0.354,0c-0.098,0.098-0.098,0.256,0,0.354l3.706,3.706
		c0.184,0.184,0.184,0.482,0,0.665l-3.706,3.705c-0.098,0.098-0.098,0.256,0,0.354c0.049,0.049,0.112,0.074,0.177,0.074
		c0.065,0,0.128-0.025,0.177-0.074l3.706-3.705C49.452,10.475,49.452,9.859,49.073,9.481z"/>
</g>
</svg>
