<?xml version="1.0" encoding="utf-8"?>
<!-- Generator: Adobe Illustrator 17.0.0, SVG Export Plug-In . SVG Version: 6.00 Build 0)  -->
<!DOCTYPE svg PUBLIC "-//W3C//DTD SVG 1.1//EN" "http://www.w3.org/Graphics/SVG/1.1/DTD/svg11.dtd">
<svg version="1.1" id="rain" xmlns="http://www.w3.org/2000/svg" xmlns:xlink="http://www.w3.org/1999/xlink" x="0px" y="0px"
	 width="106.333px" height="19.167px" viewBox="25 60.167 106.333 19.167" enable-background="new 25 60.167 106.333 19.167"
	 xml:space="preserve">
<g>
	<g>
		<path d="M50.519,61.304c-0.055,0-0.1-0.045-0.1-0.1v-0.4c0-0.055,0.045-0.1,0.1-0.1s0.1,0.045,0.1,0.1v0.4
			C50.619,61.259,50.574,61.304,50.519,61.304z"/>
	</g>
	<g>
		<path d="M50.519,78.139c-0.055,0-0.1-0.045-0.1-0.1v-0.765c0-0.055,0.045-0.1,0.1-0.1s0.1,0.045,0.1,0.1v0.765
			C50.619,78.094,50.574,78.139,50.519,78.139z M50.519,76.609c-0.055,0-0.1-0.045-0.1-0.1v-0.765c0-0.055,0.045-0.1,0.1-0.1
			s0.1,0.045,0.1,0.1v0.765C50.619,76.564,50.574,76.609,50.519,76.609z M50.519,75.078c-0.055,0-0.1-0.045-0.1-0.1v-0.765
			c0-0.055,0.045-0.1,0.1-0.1s0.1,0.045,0.1,0.1v0.765C50.619,75.033,50.574,75.078,50.519,75.078z M50.519,73.547
			c-0.055,0-0.1-0.045-0.1-0.1v-0.765c0-0.055,0.045-0.1,0.1-0.1s0.1,0.045,0.1,0.1v0.765
			C50.619,73.503,50.574,73.547,50.519,73.547z M50.519,72.017c-0.055,0-0.1-0.045-0.1-0.1v-0.765c0-0.055,0.045-0.1,0.1-0.1
			s0.1,0.045,0.1,0.1v0.765C50.619,71.972,50.574,72.017,50.519,72.017z M50.519,70.487c-0.055,0-0.1-0.045-0.1-0.1v-0.765
			c0-0.055,0.045-0.1,0.1-0.1s0.1,0.045,0.1,0.1v0.765C50.619,70.442,50.574,70.487,50.519,70.487z M50.519,68.956
			c-0.055,0-0.1-0.045-0.1-0.1v-0.765c0-0.055,0.045-0.1,0.1-0.1s0.1,0.045,0.1,0.1v0.765
			C50.619,68.912,50.574,68.956,50.519,68.956z M50.519,67.426c-0.055,0-0.1-0.045-0.1-0.1v-0.765c0-0.055,0.045-0.1,0.1-0.1
			s0.1,0.045,0.1,0.1v0.765C50.619,67.381,50.574,67.426,50.519,67.426z M50.519,65.895c-0.055,0-0.1-0.045-0.1-0.1V65.03
			c0-0.055,0.045-0.1,0.1-0.1s0.1,0.045,0.1,0.1v0.765C50.619,65.85,50.574,65.895,50.519,65.895z M50.519,64.365
			c-0.055,0-0.1-0.045-0.1-0.1v-0.765c0-0.055,0.045-0.1,0.1-0.1s0.1,0.045,0.1,0.1v0.765C50.619,64.32,50.574,64.365,50.519,64.365
			z M50.519,62.834c-0.055,0-0.1-0.045-0.1-0.1v-0.765c0-0.055,0.045-0.1,0.1-0.1s0.1,0.045,0.1,0.1v0.765
			C50.619,62.789,50.574,62.834,50.519,62.834z"/>
	</g>
	<g>
		<path d="M50.519,79.304c-0.055,0-0.1-0.045-0.1-0.1v-0.4c0-0.055,0.045-0.1,0.1-0.1s0.1,0.045,0.1,0.1v0.4
			C50.619,79.26,50.574,79.304,50.519,79.304z"/>
	</g>
</g>
<g>
	<g>
		<path d="M78.638,61.304c-0.055,0-0.1-0.045-0.1-0.1v-0.4c0-0.055,0.045-0.1,0.1-0.1c0.055,0,0.1,0.045,0.1,0.1v0.4
			C78.738,61.259,78.694,61.304,78.638,61.304z"/>
	</g>
	<g>
		<path d="M78.638,78.139c-0.055,0-0.1-0.045-0.1-0.1v-0.765c0-0.055,0.045-0.1,0.1-0.1c0.055,0,0.1,0.045,0.1,0.1v0.765
			C78.738,78.094,78.694,78.139,78.638,78.139z M78.638,76.609c-0.055,0-0.1-0.045-0.1-0.1v-0.765c0-0.055,0.045-0.1,0.1-0.1
			c0.055,0,0.1,0.045,0.1,0.1v0.765C78.738,76.564,78.694,76.609,78.638,76.609z M78.638,75.078c-0.055,0-0.1-0.045-0.1-0.1v-0.765
			c0-0.055,0.045-0.1,0.1-0.1c0.055,0,0.1,0.045,0.1,0.1v0.765C78.738,75.033,78.694,75.078,78.638,75.078z M78.638,73.547
			c-0.055,0-0.1-0.045-0.1-0.1v-0.765c0-0.055,0.045-0.1,0.1-0.1c0.055,0,0.1,0.045,0.1,0.1v0.765
			C78.738,73.503,78.694,73.547,78.638,73.547z M78.638,72.017c-0.055,0-0.1-0.045-0.1-0.1v-0.765c0-0.055,0.045-0.1,0.1-0.1
			c0.055,0,0.1,0.045,0.1,0.1v0.765C78.738,71.972,78.694,72.017,78.638,72.017z M78.638,70.487c-0.055,0-0.1-0.045-0.1-0.1v-0.765
			c0-0.055,0.045-0.1,0.1-0.1c0.055,0,0.1,0.045,0.1,0.1v0.765C78.738,70.442,78.694,70.487,78.638,70.487z M78.638,68.956
			c-0.055,0-0.1-0.045-0.1-0.1v-0.765c0-0.055,0.045-0.1,0.1-0.1c0.055,0,0.1,0.045,0.1,0.1v0.765
			C78.738,68.912,78.694,68.956,78.638,68.956z M78.638,67.426c-0.055,0-0.1-0.045-0.1-0.1v-0.765c0-0.055,0.045-0.1,0.1-0.1
			c0.055,0,0.1,0.045,0.1,0.1v0.765C78.738,67.381,78.694,67.426,78.638,67.426z M78.638,65.895c-0.055,0-0.1-0.045-0.1-0.1V65.03
			c0-0.055,0.045-0.1,0.1-0.1c0.055,0,0.1,0.045,0.1,0.1v0.765C78.738,65.85,78.694,65.895,78.638,65.895z M78.638,64.365
			c-0.055,0-0.1-0.045-0.1-0.1v-0.765c0-0.055,0.045-0.1,0.1-0.1c0.055,0,0.1,0.045,0.1,0.1v0.765
			C78.738,64.32,78.694,64.365,78.638,64.365z M78.638,62.834c-0.055,0-0.1-0.045-0.1-0.1v-0.765c0-0.055,0.045-0.1,0.1-0.1
			c0.055,0,0.1,0.045,0.1,0.1v0.765C78.738,62.789,78.694,62.834,78.638,62.834z"/>
	</g>
	<g>
		<path d="M78.638,79.304c-0.055,0-0.1-0.045-0.1-0.1v-0.4c0-0.055,0.045-0.1,0.1-0.1c0.055,0,0.1,0.045,0.1,0.1v0.4
			C78.738,79.26,78.694,79.304,78.638,79.304z"/>
	</g>
</g>
<g>
	<g>
		<path d="M106.757,61.304c-0.055,0-0.1-0.045-0.1-0.1v-0.4c0-0.055,0.045-0.1,0.1-0.1c0.055,0,0.1,0.045,0.1,0.1v0.4
			C106.857,61.259,106.812,61.304,106.757,61.304z"/>
	</g>
	<g>
		<path d="M106.757,78.139c-0.055,0-0.1-0.045-0.1-0.1v-0.765c0-0.055,0.045-0.1,0.1-0.1c0.055,0,0.1,0.045,0.1,0.1v0.765
			C106.857,78.094,106.812,78.139,106.757,78.139z M106.757,76.609c-0.055,0-0.1-0.045-0.1-0.1v-0.765c0-0.055,0.045-0.1,0.1-0.1
			c0.055,0,0.1,0.045,0.1,0.1v0.765C106.857,76.564,106.812,76.609,106.757,76.609z M106.757,75.078c-0.055,0-0.1-0.045-0.1-0.1
			v-0.765c0-0.055,0.045-0.1,0.1-0.1c0.055,0,0.1,0.045,0.1,0.1v0.765C106.857,75.033,106.812,75.078,106.757,75.078z
			 M106.757,73.547c-0.055,0-0.1-0.045-0.1-0.1v-0.765c0-0.055,0.045-0.1,0.1-0.1c0.055,0,0.1,0.045,0.1,0.1v0.765
			C106.857,73.503,106.812,73.547,106.757,73.547z M106.757,72.017c-0.055,0-0.1-0.045-0.1-0.1v-0.765c0-0.055,0.045-0.1,0.1-0.1
			c0.055,0,0.1,0.045,0.1,0.1v0.765C106.857,71.972,106.812,72.017,106.757,72.017z M106.757,70.487c-0.055,0-0.1-0.045-0.1-0.1
			v-0.765c0-0.055,0.045-0.1,0.1-0.1c0.055,0,0.1,0.045,0.1,0.1v0.765C106.857,70.442,106.812,70.487,106.757,70.487z
			 M106.757,68.956c-0.055,0-0.1-0.045-0.1-0.1v-0.765c0-0.055,0.045-0.1,0.1-0.1c0.055,0,0.1,0.045,0.1,0.1v0.765
			C106.857,68.912,106.812,68.956,106.757,68.956z M106.757,67.426c-0.055,0-0.1-0.045-0.1-0.1v-0.765c0-0.055,0.045-0.1,0.1-0.1
			c0.055,0,0.1,0.045,0.1,0.1v0.765C106.857,67.381,106.812,67.426,106.757,67.426z M106.757,65.895c-0.055,0-0.1-0.045-0.1-0.1
			V65.03c0-0.055,0.045-0.1,0.1-0.1c0.055,0,0.1,0.045,0.1,0.1v0.765C106.857,65.85,106.812,65.895,106.757,65.895z M106.757,64.365
			c-0.055,0-0.1-0.045-0.1-0.1v-0.765c0-0.055,0.045-0.1,0.1-0.1c0.055,0,0.1,0.045,0.1,0.1v0.765
			C106.857,64.32,106.812,64.365,106.757,64.365z M106.757,62.834c-0.055,0-0.1-0.045-0.1-0.1v-0.765c0-0.055,0.045-0.1,0.1-0.1
			c0.055,0,0.1,0.045,0.1,0.1v0.765C106.857,62.789,106.812,62.834,106.757,62.834z"/>
	</g>
	<g>
		<path d="M106.757,79.304c-0.055,0-0.1-0.045-0.1-0.1v-0.4c0-0.055,0.045-0.1,0.1-0.1c0.055,0,0.1,0.045,0.1,0.1v0.4
			C106.857,79.26,106.812,79.304,106.757,79.304z"/>
	</g>
</g>
<g>
	<g>
		<g>
			<g>
				<path d="M40.28,72.008h-5.406c-2.547,0-4.62-2.073-4.62-4.619s2.073-4.619,4.62-4.619c1.744,0,3.311,0.966,4.1,2.495
					c0.414-0.166,0.858-0.253,1.306-0.253c1.929,0,3.498,1.569,3.498,3.499C43.778,70.438,42.209,72.008,40.28,72.008z
					 M34.874,63.569c-2.106,0-3.82,1.713-3.82,3.819s1.714,3.819,3.82,3.819h5.406c1.488,0,2.698-1.21,2.698-2.699
					c0-1.488-1.21-2.699-2.698-2.699c-0.456,0-0.908,0.117-1.306,0.337c-0.1,0.056-0.219,0.066-0.327,0.027
					c-0.108-0.038-0.194-0.12-0.238-0.226C37.821,64.503,36.433,63.569,34.874,63.569z"/>
			</g>
		</g>
		<g>
			<polygon points="37.646,73.818 38.421,75.439 38.03,75.831 39.412,77.439 38.691,75.908 39.168,75.43 			"/>
		</g>
		<g>
			<polygon points="39.651,73.373 39.968,74.036 39.808,74.196 40.374,74.854 40.079,74.228 40.274,74.033 			"/>
		</g>
		<g>
			<polygon points="35.833,73.373 36.267,74.282 36.047,74.502 36.823,75.403 36.419,74.545 36.686,74.277 			"/>
		</g>
	</g>
	<g>
		<g>
			<g>
				<path d="M67.546,72.008H62.14c-2.547,0-4.62-2.073-4.62-4.619s2.072-4.619,4.62-4.619c1.744,0,3.311,0.966,4.101,2.495
					c0.414-0.166,0.858-0.253,1.306-0.253c1.929,0,3.498,1.569,3.498,3.499C71.044,70.438,69.475,72.008,67.546,72.008z
					 M62.14,63.569c-2.106,0-3.82,1.713-3.82,3.819s1.714,3.819,3.82,3.819h5.406c1.488,0,2.698-1.21,2.698-2.699
					c0-1.488-1.21-2.699-2.698-2.699c-0.456,0-0.908,0.117-1.306,0.337c-0.1,0.056-0.22,0.066-0.327,0.027
					c-0.108-0.038-0.194-0.12-0.238-0.226C65.087,64.503,63.7,63.569,62.14,63.569z"/>
			</g>
		</g>
		<g>
			<path d="M67.013,76.149c0.318,0.56,0.19,0.782-0.048,0.917c-0.236,0.135-0.492,0.132-0.811-0.429
				c-0.318-0.56-0.341-1.6-0.341-1.6S66.695,75.589,67.013,76.149z"/>
		</g>
		<g>
			<path d="M67.49,74.031c0.192,0.339,0.114,0.472-0.029,0.554c-0.143,0.081-0.298,0.079-0.49-0.259
				c-0.192-0.338-0.206-0.966-0.206-0.966S67.298,73.693,67.49,74.031z"/>
		</g>
		<g>
			<path d="M65.133,74.105c0.202,0.357,0.12,0.498-0.031,0.584c-0.15,0.086-0.314,0.084-0.516-0.274
				c-0.202-0.357-0.217-1.019-0.217-1.019S64.931,73.748,65.133,74.105z"/>
		</g>
	</g>
	<g>
		<g>
			<g>
				<path d="M94.813,72.008h-5.406c-2.547,0-4.62-2.073-4.62-4.619s2.072-4.619,4.62-4.619c1.744,0,3.311,0.966,4.101,2.495
					c0.414-0.166,0.858-0.253,1.306-0.253c1.929,0,3.498,1.569,3.498,3.499C98.311,70.438,96.742,72.008,94.813,72.008z
					 M89.406,63.569c-2.106,0-3.82,1.713-3.82,3.819s1.714,3.819,3.82,3.819h5.406c1.488,0,2.698-1.21,2.698-2.699
					c0-1.488-1.21-2.699-2.698-2.699c-0.456,0-0.908,0.117-1.306,0.337c-0.1,0.056-0.219,0.066-0.327,0.027
					c-0.108-0.038-0.194-0.12-0.238-0.226C92.354,64.503,90.966,63.569,89.406,63.569z"/>
			</g>
		</g>
		<g>
			<path d="M93.589,76.896c-0.217,0-0.433-0.092-0.584-0.27c-0.271-0.323-0.23-0.805,0.092-1.076c0.084-0.07,0.21-0.06,0.282,0.024
				c0.072,0.084,0.06,0.21-0.024,0.282c-0.153,0.129-0.172,0.359-0.043,0.513c0.129,0.152,0.359,0.171,0.512,0.043
				c0.074-0.063,0.12-0.15,0.128-0.247c0.008-0.097-0.022-0.191-0.084-0.265l-2.139-2.132c-0.078-0.078-0.078-0.205,0-0.283
				c0.078-0.078,0.205-0.078,0.283,0l2.15,2.145c0.143,0.168,0.206,0.366,0.189,0.569c-0.017,0.204-0.113,0.388-0.269,0.52
				C93.938,76.837,93.763,76.896,93.589,76.896z"/>
		</g>
		<g>
			<path d="M95.497,76.059c-0.257,0-0.503-0.09-0.701-0.258l-2.166-2.171c-0.078-0.078-0.078-0.205,0-0.283
				c0.078-0.078,0.205-0.078,0.283,0l2.154,2.159c0.128,0.107,0.305,0.164,0.49,0.149c0.184-0.016,0.35-0.102,0.47-0.242
				c0.245-0.291,0.208-0.727-0.082-0.973c-0.292-0.246-0.462-0.235-0.642-0.136c-0.036,0.02-0.147,0.116-0.166,0.229
				c-0.014,0.083,0.024,0.175,0.112,0.273c0.074,0.082,0.067,0.209-0.015,0.282c-0.082,0.074-0.209,0.067-0.282-0.015
				c-0.217-0.242-0.233-0.465-0.208-0.609c0.047-0.271,0.261-0.453,0.368-0.511c0.475-0.261,0.852-0.022,1.092,0.181
				c0.459,0.389,0.518,1.077,0.13,1.536c-0.188,0.223-0.451,0.359-0.741,0.383C95.559,76.057,95.528,76.059,95.497,76.059z"/>
		</g>
		<g>
			<path d="M95.204,77.886c-0.161,0-0.316-0.056-0.441-0.159c-0.143-0.118-0.232-0.285-0.249-0.47
				c-0.018-0.184,0.038-0.365,0.156-0.508c0.07-0.085,0.196-0.096,0.282-0.026c0.085,0.07,0.097,0.196,0.026,0.282
				c-0.05,0.06-0.074,0.136-0.066,0.214c0.008,0.078,0.045,0.149,0.106,0.2c0.06,0.05,0.137,0.073,0.215,0.066
				c0.078-0.008,0.149-0.045,0.2-0.106c0.05-0.06,0.074-0.137,0.066-0.216c-0.008-0.078-0.045-0.149-0.106-0.199l-0.675-0.621
				c-0.081-0.075-0.086-0.202-0.012-0.283c0.075-0.08,0.201-0.086,0.283-0.012l0.667,0.614c0.135,0.11,0.224,0.277,0.242,0.462
				c0.018,0.185-0.038,0.365-0.156,0.508c-0.118,0.143-0.285,0.232-0.47,0.25C95.248,77.885,95.226,77.886,95.204,77.886z"/>
		</g>
	</g>
	<g>
		<g>
			<g>
				<path d="M122.079,72.008h-5.406c-2.547,0-4.62-2.073-4.62-4.619s2.073-4.619,4.62-4.619c1.744,0,3.311,0.966,4.1,2.495
					c0.414-0.166,0.858-0.253,1.306-0.253c1.929,0,3.498,1.569,3.498,3.499C125.577,70.438,124.008,72.008,122.079,72.008z
					 M116.673,63.569c-2.106,0-3.82,1.713-3.82,3.819s1.714,3.819,3.82,3.819h5.406c1.488,0,2.698-1.21,2.698-2.699
					c0-1.488-1.21-2.699-2.698-2.699c-0.456,0-0.908,0.117-1.306,0.337c-0.1,0.056-0.219,0.066-0.327,0.027
					c-0.108-0.038-0.194-0.12-0.238-0.226C119.62,64.503,118.232,63.569,116.673,63.569z"/>
			</g>
		</g>
		<g>
			<g>
				<path d="M117.845,74.089h-0.244l0.173-0.173c0.029-0.029,0.028-0.075,0-0.104c-0.029-0.029-0.076-0.029-0.104,0l-0.173,0.173
					v-0.245c0-0.04-0.033-0.074-0.074-0.074c-0.04,0-0.074,0.033-0.074,0.074v0.245l-0.173-0.173c-0.029-0.029-0.076-0.029-0.104,0
					c-0.029,0.029-0.029,0.075,0,0.104l0.173,0.173H117c-0.04,0-0.074,0.033-0.074,0.074c0,0.041,0.033,0.074,0.074,0.074h0.245
					l-0.173,0.173c-0.029,0.029-0.029,0.075,0,0.104c0.014,0.014,0.033,0.022,0.052,0.022c0.019,0,0.038-0.007,0.052-0.022
					l0.173-0.173v0.245c0,0.04,0.033,0.074,0.074,0.074c0.04,0,0.074-0.033,0.074-0.074v-0.245l0.173,0.173
					c0.015,0.014,0.034,0.022,0.052,0.022c0.019,0,0.038-0.008,0.052-0.022c0.028-0.029,0.028-0.075,0-0.104l-0.173-0.173h0.245
					c0.041,0,0.074-0.033,0.074-0.074C117.919,74.123,117.886,74.089,117.845,74.089z"/>
			</g>
			<g>
				<path d="M121.439,74.202h-0.313l0.221-0.222c0.037-0.037,0.036-0.096,0-0.133c-0.037-0.037-0.096-0.037-0.133,0l-0.222,0.221
					v-0.313c0-0.052-0.042-0.094-0.094-0.094c-0.052,0-0.094,0.042-0.094,0.094v0.313l-0.221-0.221
					c-0.037-0.037-0.096-0.037-0.133,0c-0.036,0.037-0.036,0.096,0,0.133l0.222,0.222h-0.313c-0.052,0-0.094,0.042-0.094,0.094
					c0,0.052,0.042,0.094,0.094,0.094h0.313l-0.222,0.222c-0.037,0.037-0.036,0.096,0,0.133c0.018,0.018,0.042,0.028,0.066,0.028
					s0.048-0.009,0.067-0.028l0.221-0.221v0.313c0,0.052,0.042,0.094,0.094,0.094c0.052,0,0.094-0.042,0.094-0.094v-0.313
					l0.222,0.222c0.018,0.018,0.042,0.028,0.067,0.028c0.024,0,0.048-0.009,0.067-0.028c0.036-0.037,0.036-0.096,0-0.133
					l-0.222-0.222h0.314c0.052,0,0.094-0.042,0.094-0.094C121.533,74.244,121.491,74.202,121.439,74.202z"/>
			</g>
			<g>
				<path d="M120.675,76.481h-0.526l0.372-0.372c0.062-0.062,0.061-0.162,0-0.224c-0.062-0.062-0.162-0.062-0.224,0l-0.372,0.372
					v-0.526c0-0.087-0.071-0.158-0.158-0.158c-0.087,0-0.158,0.071-0.158,0.158v0.526l-0.372-0.372
					c-0.062-0.062-0.162-0.062-0.224,0c-0.061,0.062-0.061,0.162,0,0.224l0.372,0.372h-0.526c-0.087,0-0.158,0.071-0.158,0.158
					s0.071,0.158,0.158,0.158h0.526l-0.372,0.372c-0.062,0.062-0.061,0.162,0,0.223c0.031,0.031,0.072,0.046,0.112,0.046
					c0.04,0,0.081-0.016,0.112-0.046l0.372-0.372v0.526c0,0.087,0.071,0.158,0.158,0.158c0.087,0,0.158-0.071,0.158-0.158V77.02
					l0.372,0.372c0.031,0.031,0.072,0.046,0.112,0.046c0.04,0,0.081-0.016,0.112-0.046c0.061-0.062,0.061-0.162,0-0.223
					l-0.372-0.372h0.526c0.087,0,0.158-0.071,0.158-0.158C120.833,76.552,120.762,76.481,120.675,76.481z"/>
			</g>
		</g>
	</g>
</g>
</svg>
