<?xml version="1.0" encoding="utf-8"?>
<!-- Generator: Adobe Illustrator 17.0.0, SVG Export Plug-In . SVG Version: 6.00 Build 0)  -->
<!DOCTYPE svg PUBLIC "-//W3C//DTD SVG 1.1//EN" "http://www.w3.org/Graphics/SVG/1.1/DTD/svg11.dtd">
<svg version="1.1" id="Layer_1" xmlns="http://www.w3.org/2000/svg" xmlns:xlink="http://www.w3.org/1999/xlink" x="0px" y="0px"
	 width="133.76px" height="133.761px" viewBox="27.358 27.505 133.76 133.761"
	 enable-background="new 27.358 27.505 133.76 133.761" xml:space="preserve">
<g>
	<path d="M54.4,130.792c-4.331-4.734-7.829-10.24-10.265-16.285l-11.992,4.759c3.053,7.612,7.464,14.531,12.935,20.459L54.4,130.792
		z"/>
	<path d="M40.243,94.385c0-2.466,0.17-4.893,0.492-7.272l-12.687-2.329c-0.451,3.137-0.69,6.341-0.69,9.602
		c0,8.407,1.556,16.449,4.387,23.86l11.992-4.759C41.482,107.545,40.243,101.107,40.243,94.385z"/>
	<path d="M49.736,44.465l8.896,9.365c9.255-8.137,21.308-13.161,34.51-13.426V27.519C76.483,27.787,61.305,34.144,49.736,44.465z"/>
	<path d="M40.891,86.026c1.931-12.374,8.079-23.368,16.924-31.465l-8.892-9.36c-10.778,9.936-18.282,23.368-20.712,38.498
		L40.891,86.026z"/>
	<path d="M94.238,27.505V40.39c29.773,0,53.995,24.223,53.995,53.995c0,29.773-24.222,53.995-53.995,53.995
		c-15.364,0-29.25-6.45-39.092-16.785l-9.32,8.933c12.18,12.777,29.366,20.738,48.412,20.738c36.937,0,66.88-29.943,66.88-66.881
		C161.118,57.448,131.175,27.505,94.238,27.505z"/>
</g>
</svg>
