
<svg version="1.1" id="Layer_1" xmlns="http://www.w3.org/2000/svg" xmlns:xlink="http://www.w3.org/1999/xlink" x="0px" y="0px"
	 width="52.497px" height="47.566px" viewBox="0 0 52.497 47.566" enable-background="new 0 0 52.497 47.566" xml:space="preserve">
<g>
	<g>
		<path d="M26.835,37.358c-7.167,0-12.997-5.831-12.997-12.998c0-7.167,5.83-12.997,12.997-12.997
			c7.167,0,12.997,5.83,12.997,12.997C39.832,31.527,34.002,37.358,26.835,37.358z M26.835,13.363
			c-6.063,0-10.997,4.934-10.997,10.997c0,6.064,4.934,10.998,10.997,10.998c6.064,0,10.997-4.934,10.997-10.998
			C37.832,18.297,32.899,13.363,26.835,13.363z"/>
	</g>
	<g>
		<path d="M25.924,25.249h-3.072v-1.792h3.072v-3.04h1.824v3.04h3.071v1.792h-3.071v3.057h-1.824V25.249z"/>
	</g>
</g>
</svg>
