
<svg version="1.1" class="padding-bottom-large" id="rain" xmlns="http://www.w3.org/2000/svg" xmlns:xlink="http://www.w3.org/1999/xlink" x="0px" y="0px" viewBox="30.254 20.004 249.988 46.5" enable-background="new 30.254 20.004 249.988 46.5" xml:space="preserve">
<g>
	<g>
		<path d="M80.914,21.504c-0.138,0-0.25-0.112-0.25-0.25v-1c0-0.138,0.112-0.25,0.25-0.25s0.25,0.112,0.25,0.25v1
			C81.164,21.392,81.052,21.504,80.914,21.504z"/>
	</g>
	<g>
		<path d="M80.914,63.591c-0.138,0-0.25-0.112-0.25-0.25v-1.913c0-0.138,0.112-0.25,0.25-0.25s0.25,0.112,0.25,0.25v1.913
			C81.164,63.479,81.052,63.591,80.914,63.591z M80.914,59.765c-0.138,0-0.25-0.112-0.25-0.25v-1.913c0-0.138,0.112-0.25,0.25-0.25
			s0.25,0.112,0.25,0.25v1.913C81.164,59.652,81.052,59.765,80.914,59.765z M80.914,55.939c-0.138,0-0.25-0.112-0.25-0.25v-1.913
			c0-0.138,0.112-0.25,0.25-0.25s0.25,0.112,0.25,0.25v1.913C81.164,55.826,81.052,55.939,80.914,55.939z M80.914,52.112
			c-0.138,0-0.25-0.112-0.25-0.25v-1.913c0-0.138,0.112-0.25,0.25-0.25s0.25,0.112,0.25,0.25v1.913
			C81.164,52,81.052,52.112,80.914,52.112z M80.914,48.286c-0.138,0-0.25-0.112-0.25-0.25v-1.913c0-0.138,0.112-0.25,0.25-0.25
			s0.25,0.112,0.25,0.25v1.913C81.164,48.174,81.052,48.286,80.914,48.286z M80.914,44.461c-0.138,0-0.25-0.112-0.25-0.25v-1.913
			c0-0.138,0.112-0.25,0.25-0.25s0.25,0.112,0.25,0.25v1.913C81.164,44.349,81.052,44.461,80.914,44.461z M80.914,40.635
			c-0.138,0-0.25-0.112-0.25-0.25v-1.913c0-0.138,0.112-0.25,0.25-0.25s0.25,0.112,0.25,0.25v1.913
			C81.164,40.523,81.052,40.635,80.914,40.635z M80.914,36.809c-0.138,0-0.25-0.112-0.25-0.25v-1.913c0-0.138,0.112-0.25,0.25-0.25
			s0.25,0.112,0.25,0.25v1.913C81.164,36.696,81.052,36.809,80.914,36.809z M80.914,32.983c-0.138,0-0.25-0.112-0.25-0.25V30.82
			c0-0.138,0.112-0.25,0.25-0.25s0.25,0.112,0.25,0.25v1.913C81.164,32.87,81.052,32.983,80.914,32.983z M80.914,29.156
			c-0.138,0-0.25-0.112-0.25-0.25v-1.913c0-0.138,0.112-0.25,0.25-0.25s0.25,0.112,0.25,0.25v1.913
			C81.164,29.045,81.052,29.156,80.914,29.156z M80.914,25.33c-0.138,0-0.25-0.112-0.25-0.25v-1.913c0-0.138,0.112-0.25,0.25-0.25
			s0.25,0.112,0.25,0.25v1.913C81.164,25.218,81.052,25.33,80.914,25.33z"/>
	</g>
	<g>
		<path d="M80.914,66.504c-0.138,0-0.25-0.112-0.25-0.25v-1c0-0.138,0.112-0.25,0.25-0.25s0.25,0.112,0.25,0.25v1
			C81.164,66.392,81.052,66.504,80.914,66.504z"/>
	</g>
</g>
<g>
	<g>
		<path d="M151.208,21.504c-0.138,0-0.25-0.112-0.25-0.25v-1c0-0.138,0.112-0.25,0.25-0.25s0.25,0.112,0.25,0.25v1
			C151.458,21.392,151.347,21.504,151.208,21.504z"/>
	</g>
	<g>
		<path d="M151.208,63.591c-0.138,0-0.25-0.112-0.25-0.25v-1.913c0-0.138,0.112-0.25,0.25-0.25s0.25,0.112,0.25,0.25v1.913
			C151.458,63.479,151.347,63.591,151.208,63.591z M151.208,59.765c-0.138,0-0.25-0.112-0.25-0.25v-1.913
			c0-0.138,0.112-0.25,0.25-0.25s0.25,0.112,0.25,0.25v1.913C151.458,59.652,151.347,59.765,151.208,59.765z M151.208,55.939
			c-0.138,0-0.25-0.112-0.25-0.25v-1.913c0-0.138,0.112-0.25,0.25-0.25s0.25,0.112,0.25,0.25v1.913
			C151.458,55.826,151.347,55.939,151.208,55.939z M151.208,52.112c-0.138,0-0.25-0.112-0.25-0.25v-1.913
			c0-0.138,0.112-0.25,0.25-0.25s0.25,0.112,0.25,0.25v1.913C151.458,52,151.347,52.112,151.208,52.112z M151.208,48.286
			c-0.138,0-0.25-0.112-0.25-0.25v-1.913c0-0.138,0.112-0.25,0.25-0.25s0.25,0.112,0.25,0.25v1.913
			C151.458,48.174,151.347,48.286,151.208,48.286z M151.208,44.461c-0.138,0-0.25-0.112-0.25-0.25v-1.913
			c0-0.138,0.112-0.25,0.25-0.25s0.25,0.112,0.25,0.25v1.913C151.458,44.349,151.347,44.461,151.208,44.461z M151.208,40.635
			c-0.138,0-0.25-0.112-0.25-0.25v-1.913c0-0.138,0.112-0.25,0.25-0.25s0.25,0.112,0.25,0.25v1.913
			C151.458,40.523,151.347,40.635,151.208,40.635z M151.208,36.809c-0.138,0-0.25-0.112-0.25-0.25v-1.913
			c0-0.138,0.112-0.25,0.25-0.25s0.25,0.112,0.25,0.25v1.913C151.458,36.696,151.347,36.809,151.208,36.809z M151.208,32.983
			c-0.138,0-0.25-0.112-0.25-0.25V30.82c0-0.138,0.112-0.25,0.25-0.25s0.25,0.112,0.25,0.25v1.913
			C151.458,32.87,151.347,32.983,151.208,32.983z M151.208,29.156c-0.138,0-0.25-0.112-0.25-0.25v-1.913
			c0-0.138,0.112-0.25,0.25-0.25s0.25,0.112,0.25,0.25v1.913C151.458,29.045,151.347,29.156,151.208,29.156z M151.208,25.33
			c-0.138,0-0.25-0.112-0.25-0.25v-1.913c0-0.138,0.112-0.25,0.25-0.25s0.25,0.112,0.25,0.25v1.913
			C151.458,25.218,151.347,25.33,151.208,25.33z"/>
	</g>
	<g>
		<path d="M151.208,66.504c-0.138,0-0.25-0.112-0.25-0.25v-1c0-0.138,0.112-0.25,0.25-0.25s0.25,0.112,0.25,0.25v1
			C151.458,66.392,151.347,66.504,151.208,66.504z"/>
	</g>
</g>
<g>
	<g>
		<path d="M221.503,21.504c-0.138,0-0.25-0.112-0.25-0.25v-1c0-0.138,0.112-0.25,0.25-0.25s0.25,0.112,0.25,0.25v1
			C221.753,21.392,221.641,21.504,221.503,21.504z"/>
	</g>
	<g>
		<path d="M221.503,63.591c-0.138,0-0.25-0.112-0.25-0.25v-1.913c0-0.138,0.112-0.25,0.25-0.25s0.25,0.112,0.25,0.25v1.913
			C221.753,63.479,221.641,63.591,221.503,63.591z M221.503,59.765c-0.138,0-0.25-0.112-0.25-0.25v-1.913
			c0-0.138,0.112-0.25,0.25-0.25s0.25,0.112,0.25,0.25v1.913C221.753,59.652,221.641,59.765,221.503,59.765z M221.503,55.939
			c-0.138,0-0.25-0.112-0.25-0.25v-1.913c0-0.138,0.112-0.25,0.25-0.25s0.25,0.112,0.25,0.25v1.913
			C221.753,55.826,221.641,55.939,221.503,55.939z M221.503,52.112c-0.138,0-0.25-0.112-0.25-0.25v-1.913
			c0-0.138,0.112-0.25,0.25-0.25s0.25,0.112,0.25,0.25v1.913C221.753,52,221.641,52.112,221.503,52.112z M221.503,48.286
			c-0.138,0-0.25-0.112-0.25-0.25v-1.913c0-0.138,0.112-0.25,0.25-0.25s0.25,0.112,0.25,0.25v1.913
			C221.753,48.174,221.641,48.286,221.503,48.286z M221.503,44.461c-0.138,0-0.25-0.112-0.25-0.25v-1.913
			c0-0.138,0.112-0.25,0.25-0.25s0.25,0.112,0.25,0.25v1.913C221.753,44.349,221.641,44.461,221.503,44.461z M221.503,40.635
			c-0.138,0-0.25-0.112-0.25-0.25v-1.913c0-0.138,0.112-0.25,0.25-0.25s0.25,0.112,0.25,0.25v1.913
			C221.753,40.523,221.641,40.635,221.503,40.635z M221.503,36.809c-0.138,0-0.25-0.112-0.25-0.25v-1.913
			c0-0.138,0.112-0.25,0.25-0.25s0.25,0.112,0.25,0.25v1.913C221.753,36.696,221.641,36.809,221.503,36.809z M221.503,32.983
			c-0.138,0-0.25-0.112-0.25-0.25V30.82c0-0.138,0.112-0.25,0.25-0.25s0.25,0.112,0.25,0.25v1.913
			C221.753,32.87,221.641,32.983,221.503,32.983z M221.503,29.156c-0.138,0-0.25-0.112-0.25-0.25v-1.913
			c0-0.138,0.112-0.25,0.25-0.25s0.25,0.112,0.25,0.25v1.913C221.753,29.045,221.641,29.156,221.503,29.156z M221.503,25.33
			c-0.138,0-0.25-0.112-0.25-0.25v-1.913c0-0.138,0.112-0.25,0.25-0.25s0.25,0.112,0.25,0.25v1.913
			C221.753,25.218,221.641,25.33,221.503,25.33z"/>
	</g>
	<g>
		<path d="M221.503,66.504c-0.138,0-0.25-0.112-0.25-0.25v-1c0-0.138,0.112-0.25,0.25-0.25s0.25,0.112,0.25,0.25v1
			C221.753,66.392,221.641,66.504,221.503,66.504z"/>
	</g>
</g>
<g>
	<g>
		<g>
			<g>
				<path d="M55.318,48.263H41.803c-6.368,0-11.549-5.181-11.549-11.548s5.181-11.548,11.549-11.548c4.36,0,8.278,2.416,10.25,6.237
					c1.034-0.416,2.145-0.633,3.264-0.633c4.822,0,8.745,3.923,8.745,8.746C64.062,44.339,60.14,48.263,55.318,48.263z
					 M41.803,27.167c-5.265,0-9.549,4.283-9.549,9.548s4.284,9.548,9.549,9.548h13.515c3.719,0,6.745-3.026,6.745-6.746
					c0-3.72-3.025-6.746-6.745-6.746c-1.14,0-2.269,0.292-3.264,0.843c-0.25,0.139-0.547,0.164-0.817,0.068
					c-0.27-0.095-0.486-0.301-0.594-0.566C49.171,29.502,45.701,27.167,41.803,27.167z"/>
			</g>
		</g>
		<g>
			<polygon points="48.734,52.789 50.671,56.842 49.692,57.821 53.147,61.84 51.346,58.013 52.539,56.819 			"/>
		</g>
		<g>
			<polygon points="53.746,51.676 54.539,53.334 54.138,53.734 55.552,55.379 54.815,53.813 55.303,53.325 			"/>
		</g>
		<g>
			<polygon points="44.2,51.676 45.286,53.949 44.737,54.498 46.675,56.752 45.665,54.605 46.334,53.937 			"/>
		</g>
	</g>
	<g>
		<g>
			<g>
				<path d="M123.48,48.263h-13.515c-6.368,0-11.549-5.181-11.549-11.548s5.181-11.548,11.549-11.548
					c4.36,0,8.278,2.416,10.251,6.237c1.034-0.416,2.145-0.633,3.264-0.633c4.822,0,8.745,3.923,8.745,8.746
					C132.225,44.339,128.302,48.263,123.48,48.263z M109.966,27.167c-5.265,0-9.549,4.283-9.549,9.548s4.284,9.548,9.549,9.548
					h13.515c3.719,0,6.745-3.026,6.745-6.746c0-3.72-3.025-6.746-6.745-6.746c-1.14,0-2.269,0.292-3.264,0.843
					c-0.25,0.139-0.549,0.164-0.817,0.068c-0.27-0.095-0.486-0.301-0.594-0.566C117.333,29.502,113.864,27.167,109.966,27.167z"/>
			</g>
		</g>
		<g>
			<path d="M122.146,58.617c0.795,1.401,0.474,1.955-0.12,2.292c-0.591,0.337-1.231,0.329-2.027-1.073
				c-0.795-1.401-0.852-4.001-0.852-4.001S121.351,57.216,122.146,58.617z"/>
		</g>
		<g>
			<path d="M123.339,53.321c0.48,0.847,0.286,1.181-0.073,1.384c-0.357,0.203-0.744,0.198-1.224-0.648
				c-0.48-0.846-0.515-2.416-0.515-2.416S122.859,52.476,123.339,53.321z"/>
		</g>
		<g>
			<path d="M117.448,53.506c0.506,0.893,0.301,1.245-0.077,1.459c-0.376,0.214-0.784,0.209-1.29-0.684
				c-0.506-0.892-0.543-2.548-0.543-2.548S116.942,52.614,117.448,53.506z"/>
		</g>
	</g>
	<g>
		<g>
			<g>
				<path d="M191.643,48.263h-13.515c-6.368,0-11.549-5.181-11.549-11.548s5.181-11.548,11.549-11.548
					c4.36,0,8.278,2.416,10.251,6.237c1.034-0.416,2.145-0.633,3.264-0.633c4.822,0,8.745,3.923,8.745,8.746
					C200.388,44.339,196.465,48.263,191.643,48.263z M178.128,27.167c-5.265,0-9.549,4.283-9.549,9.548s4.284,9.548,9.549,9.548
					h13.515c3.719,0,6.745-3.026,6.745-6.746c0-3.72-3.025-6.746-6.745-6.746c-1.14,0-2.269,0.292-3.264,0.843
					c-0.25,0.139-0.548,0.164-0.817,0.068c-0.27-0.095-0.486-0.301-0.594-0.566C185.496,29.502,182.026,27.167,178.128,27.167z"/>
			</g>
		</g>
		<g>
			<path d="M188.585,60.482c-0.543,0-1.083-0.229-1.461-0.675c-0.678-0.807-0.575-2.013,0.229-2.69
				c0.211-0.176,0.526-0.151,0.704,0.06c0.179,0.211,0.151,0.526-0.06,0.704c-0.383,0.323-0.431,0.898-0.108,1.282
				c0.323,0.381,0.898,0.428,1.279,0.107c0.186-0.157,0.299-0.376,0.319-0.618s-0.055-0.478-0.211-0.662l-5.347-5.33
				c-0.195-0.195-0.195-0.512,0-0.708c0.195-0.195,0.512-0.195,0.707,0l5.375,5.361c0.357,0.42,0.516,0.915,0.473,1.423
				c-0.043,0.509-0.282,0.97-0.672,1.299C189.456,60.336,189.02,60.482,188.585,60.482z"/>
		</g>
		<g>
			<path d="M193.353,58.391c-0.642,0-1.257-0.225-1.752-0.644l-5.415-5.426c-0.195-0.196-0.195-0.513,0-0.707
				c0.195-0.195,0.512-0.195,0.707,0l5.385,5.397c0.319,0.268,0.763,0.41,1.225,0.372c0.46-0.039,0.876-0.254,1.174-0.606
				c0.612-0.727,0.521-1.817-0.206-2.432c-0.73-0.615-1.156-0.587-1.606-0.341c-0.091,0.051-0.368,0.29-0.415,0.573
				c-0.034,0.207,0.06,0.438,0.279,0.683c0.185,0.206,0.167,0.522-0.038,0.706c-0.206,0.184-0.522,0.167-0.706-0.038
				c-0.542-0.605-0.582-1.162-0.521-1.523c0.117-0.677,0.653-1.132,0.921-1.277c1.188-0.652,2.129-0.054,2.73,0.453
				c1.148,0.972,1.294,2.693,0.325,3.841c-0.469,0.557-1.127,0.897-1.853,0.958C193.509,58.387,193.431,58.391,193.353,58.391z"/>
		</g>
		<g>
			<path d="M192.62,62.957c-0.402,0-0.789-0.139-1.103-0.398c-0.357-0.295-0.579-0.712-0.623-1.175
				c-0.044-0.461,0.095-0.912,0.391-1.269c0.176-0.213,0.491-0.241,0.704-0.065c0.212,0.176,0.242,0.491,0.065,0.704
				c-0.125,0.15-0.184,0.341-0.165,0.535c0.019,0.196,0.113,0.373,0.266,0.499c0.15,0.125,0.343,0.183,0.537,0.166
				c0.196-0.019,0.373-0.113,0.499-0.266c0.125-0.151,0.184-0.343,0.164-0.539c-0.019-0.195-0.112-0.372-0.264-0.497l-1.688-1.553
				c-0.203-0.188-0.216-0.504-0.029-0.707c0.188-0.201,0.503-0.215,0.707-0.029l1.667,1.535c0.337,0.276,0.559,0.693,0.604,1.155
				c0.044,0.462-0.094,0.913-0.389,1.271c-0.296,0.358-0.713,0.58-1.176,0.624C192.732,62.955,192.675,62.957,192.62,62.957z"/>
		</g>
	</g>
	<g>
		<g>
			<g>
				<path d="M259.806,48.263h-13.515c-6.368,0-11.549-5.181-11.549-11.548s5.181-11.548,11.549-11.548
					c4.36,0,8.278,2.416,10.25,6.237c1.034-0.416,2.146-0.633,3.265-0.633c4.822,0,8.744,3.923,8.744,8.746
					C268.55,44.339,264.628,48.263,259.806,48.263z M246.291,27.167c-5.265,0-9.549,4.283-9.549,9.548s4.284,9.548,9.549,9.548
					h13.515c3.719,0,6.744-3.026,6.744-6.746c0-3.72-3.025-6.746-6.744-6.746c-1.14,0-2.269,0.292-3.264,0.843
					c-0.25,0.139-0.548,0.164-0.817,0.068c-0.27-0.095-0.486-0.301-0.594-0.566C253.659,29.502,250.189,27.167,246.291,27.167z"/>
			</g>
		</g>
		<g>
			<g>
				<path d="M249.222,53.467h-0.611l0.432-0.433c0.072-0.072,0.071-0.188,0-0.26c-0.072-0.072-0.189-0.072-0.261,0l-0.432,0.433
					v-0.612c0-0.101-0.082-0.184-0.184-0.184c-0.101,0-0.184,0.082-0.184,0.184v0.612l-0.433-0.433c-0.072-0.072-0.189-0.072-0.26,0
					c-0.072,0.072-0.072,0.188,0,0.26l0.433,0.433h-0.613c-0.101,0-0.184,0.083-0.184,0.184c0,0.102,0.083,0.184,0.184,0.184h0.613
					l-0.433,0.433c-0.072,0.072-0.072,0.188,0,0.26c0.035,0.036,0.083,0.054,0.129,0.054c0.047,0,0.095-0.018,0.13-0.054
					l0.433-0.433v0.612c0,0.101,0.082,0.184,0.184,0.184c0.101,0,0.184-0.083,0.184-0.184v-0.612l0.432,0.433
					c0.037,0.036,0.084,0.054,0.13,0.054c0.047,0,0.095-0.019,0.13-0.054c0.071-0.072,0.071-0.188,0-0.26l-0.433-0.433h0.612
					c0.102,0,0.184-0.082,0.184-0.184C249.406,53.55,249.324,53.467,249.222,53.467z"/>
			</g>
			<g>
				<path d="M258.205,53.749h-0.783l0.553-0.554c0.092-0.092,0.091-0.241,0-0.333c-0.092-0.092-0.241-0.092-0.333,0l-0.554,0.553
					v-0.783c0-0.129-0.105-0.235-0.235-0.235c-0.129,0-0.235,0.106-0.235,0.235v0.783l-0.553-0.553
					c-0.092-0.092-0.241-0.092-0.333,0c-0.091,0.092-0.091,0.241,0,0.333l0.554,0.554h-0.783c-0.13,0-0.235,0.105-0.235,0.235
					c0,0.129,0.105,0.235,0.235,0.235h0.783l-0.554,0.554c-0.092,0.092-0.091,0.241,0,0.332c0.046,0.046,0.106,0.069,0.166,0.069
					s0.121-0.023,0.167-0.069l0.553-0.553v0.783c0,0.13,0.105,0.235,0.235,0.235c0.13,0,0.235-0.105,0.235-0.235v-0.783l0.554,0.554
					c0.046,0.046,0.106,0.069,0.167,0.069s0.121-0.023,0.167-0.069c0.091-0.092,0.091-0.241,0-0.333l-0.554-0.554h0.784
					c0.13,0,0.235-0.105,0.235-0.235C258.441,53.854,258.335,53.749,258.205,53.749z"/>
			</g>
			<g>
				<path d="M256.295,59.445h-1.315l0.929-0.93c0.154-0.154,0.153-0.404,0-0.559c-0.154-0.154-0.405-0.154-0.559,0l-0.929,0.93
					v-1.314c0-0.218-0.177-0.395-0.395-0.395s-0.395,0.177-0.395,0.395v1.314l-0.93-0.93c-0.154-0.154-0.405-0.154-0.56,0
					c-0.153,0.154-0.153,0.404,0,0.559l0.93,0.93h-1.314c-0.218,0-0.395,0.177-0.395,0.395c0,0.218,0.177,0.395,0.395,0.395h1.315
					l-0.931,0.931c-0.154,0.154-0.153,0.404,0,0.558c0.078,0.078,0.179,0.116,0.28,0.116s0.203-0.039,0.28-0.116l0.93-0.929v1.314
					c0,0.218,0.177,0.395,0.395,0.395s0.395-0.177,0.395-0.395v-1.315l0.929,0.93c0.077,0.077,0.179,0.116,0.279,0.116
					c0.101,0,0.203-0.039,0.28-0.116c0.153-0.154,0.153-0.404,0-0.558l-0.929-0.93h1.315c0.218,0,0.395-0.177,0.395-0.395
					C256.69,59.622,256.513,59.445,256.295,59.445z"/>
			</g>
		</g>
	</g>
</g>
</svg>
