
<svg version="1.1" id="Layer_1" xmlns="http://www.w3.org/2000/svg" xmlns:xlink="http://www.w3.org/1999/xlink" x="0px" y="0px"
	 width="176.991px" height="259.487px" viewBox="0 0 176.991 259.487" enable-background="new 0 0 176.991 259.487"
	 xml:space="preserve">
<g>
	<path d="M145.87,153.154H30.096c-0.462,0-0.836-0.375-0.836-0.837v-94.58c0-0.462,0.374-0.837,0.836-0.837H145.87
		c0.462,0,0.836,0.375,0.836,0.837v94.58C146.706,152.779,146.332,153.154,145.87,153.154z M30.933,151.481h114.101V58.572H30.933
		V151.481z"/>
</g>
<g>
	<path d="M98.985,58.572H30.096c-0.385,0-0.721-0.264-0.812-0.638c-0.091-0.374,0.085-0.763,0.428-0.941l81.217-42.203
		c0.292-0.15,0.643-0.119,0.901,0.083c0.258,0.202,0.374,0.536,0.298,0.854l-4.868,20.311l19.606,5.308
		c0.328,0.089,0.569,0.368,0.611,0.704c0.042,0.336-0.123,0.666-0.419,0.832L99.396,58.465
		C99.27,58.535,99.128,58.572,98.985,58.572z M33.519,56.9h65.246l25.692-14.472l-18.42-4.986c-0.437-0.118-0.7-0.562-0.595-1.002
		l4.631-19.32L33.519,56.9z"/>
</g>
<g>
	<path d="M63.345,193.444c-0.193,0-0.385-0.066-0.538-0.196c-0.253-0.214-0.356-0.556-0.265-0.873l5.629-19.371l-19.306-6.364
		c-0.317-0.105-0.542-0.389-0.571-0.723c-0.028-0.333,0.145-0.651,0.439-0.81l25.368-13.528c0.121-0.064,0.257-0.098,0.395-0.098
		h71.374c0.39,0,0.727,0.268,0.815,0.648c0.087,0.38-0.099,0.768-0.449,0.94l-82.524,40.29
		C63.596,193.416,63.47,193.444,63.345,193.444z M51.246,165.662l18.215,6.005c0.428,0.142,0.667,0.596,0.541,1.027l-5.326,18.333
		l77.575-37.874H74.705L51.246,165.662z"/>
</g>
<circle cx="35.012" cy="229.632" r="4.079"/>
<line fill="none" stroke="#000000" stroke-linecap="round" stroke-linejoin="round" stroke-miterlimit="10" x1="35.011" y1="229.632" x2="146.706" y2="229.632"/>
</svg>
