<svg version="1.1" id="qt_logo" xmlns="http://www.w3.org/2000/svg" xmlns:xlink="http://www.w3.org/1999/xlink" x="0px" y="0px"
	 width="200px" viewBox="0 0 238.905 51.453" enable-background="new 0 0 238.905 51.453"
	 xml:space="preserve">
<g>
	<path d="M28.502,36.502c-2.85,1.85-6.351,2.95-10.301,2.95C7.4,39.452,0,31.402,0,21.451S7.4,3.45,18.201,3.45
		s18.201,8.05,18.201,18.001c0,3.05-0.7,5.9-1.95,8.45l3.1,2.351l-5.45,7.15L28.502,36.502z M21.001,30.501l-4.851-3.85l5.05-6.75
		l5.601,4.25c0.25-0.85,0.35-1.75,0.35-2.7c0-5.101-3.601-9.5-8.951-9.5s-8.951,4.4-8.951,9.5c0,5.1,3.55,9.5,8.951,9.5
		C19.201,30.952,20.151,30.802,21.001,30.501z"/>
	<path d="M57.391,36.452c-1.6,2.2-4,3.25-6.7,3.25c-8.851,0-9.951-7.45-9.951-15.201V13.951h8.8v12.401c0,3.55,0.55,6.3,3.65,6.3
		c2.05,0,3.35-1.3,4.05-2.35V13.951h8.8v25.001h-8.65V36.452z"/>
	<path d="M70.584,5.25c0-2.95,2.45-5.25,5.4-5.25c2.9,0,5.4,2.3,5.4,5.25s-2.5,5.3-5.4,5.3C73.035,10.55,70.584,8.2,70.584,5.25z
		 M71.584,13.951h8.801v25.001h-8.801V13.951z"/>
	<path d="M98.66,39.452c-8.101,0-11.651-4.3-11.651-11.75v-6h-3.7v-7.75h3.7V6.7h8.801v7.25h8.801v7.75H95.81v4.1
		c0,3.9,0.5,5.75,4.25,5.75c1.05,0,2.2-0.15,3.05-0.3l1.65,7.351C103.061,39.052,101.061,39.452,98.66,39.452z"/>
	<path d="M120.67,39.452c-7.351,0-13.651-4.9-13.651-13.001c0-7.3,4.95-13,12.951-13c7.851,0,12.551,5.5,12.551,12.701
		c0,0.75-0.05,2-0.15,2.7H115.72c0,2.25,2.15,4.6,5.35,4.6c3.101,0,4.8-2.2,5.3-2.9l5.25,3.6
		C129.67,37.452,125.32,39.452,120.67,39.452z M124.02,23.351c0-2.4-1.7-3.9-4.1-3.9c-2.85,0-4.35,2.1-4.35,3.9H124.02z"/>
	<path d="M138.959,12.101h-7.75V3.95h25.252v8.15h-8.501v26.852h-9V12.101z"/>
	<path d="M156.814,51.453l5.351-12.551l-9.851-24.952h9.75l5.2,14.251l5.501-14.251h9.65l-15.951,37.502H156.814z"/>
	<path d="M192.679,36.402v15.051h-8.801V13.951h8.65v2.85c1.4-2,3.601-3.35,6.501-3.35c5.8,0,11.75,5.3,11.75,13
		c0,7.401-5.6,13.001-11.75,13.001C196.179,39.452,194.08,38.252,192.679,36.402z M202.08,26.401c0-2.75-1.85-5.15-4.95-5.15
		s-4.95,2.4-4.95,5.15c0,2.65,1.85,5.05,4.95,5.05S202.08,29.052,202.08,26.401z"/>
	<path d="M227.054,39.452c-7.351,0-13.651-4.9-13.651-13.001c0-7.3,4.95-13,12.951-13c7.851,0,12.551,5.5,12.551,12.701
		c0,0.75-0.051,2-0.15,2.7h-16.651c0,2.25,2.15,4.6,5.351,4.6c3.101,0,4.801-2.2,5.301-2.9l5.25,3.6
		C236.054,37.452,231.704,39.452,227.054,39.452z M230.404,23.351c0-2.4-1.7-3.9-4.1-3.9c-2.851,0-4.351,2.1-4.351,3.9H230.404z"/>
</g>
</svg>
